<?xml version="1.0" encoding="UTF-8" standalone="no"?><!DOCTYPE svg PUBLIC "-//W3C//DTD SVG 1.1//EN" "http://www.w3.org/Graphics/SVG/1.1/DTD/svg11.dtd"><svg width="100%" height="100%" viewBox="0 0 145 145" version="1.1" xmlns="http://www.w3.org/2000/svg" xmlns:xlink="http://www.w3.org/1999/xlink" xml:space="preserve" xmlns:serif="http://www.serif.com/" style="fill-rule:evenodd;clip-rule:evenodd;stroke-linejoin:round;stroke-miterlimit:2;"><path id="WRONG" d="M53.557,72.276c-21.278,-21.171 -39.111,-38.515 -53.5,-52.032l20.118,-20.118c13.447,14.374 30.789,32.21 52.026,53.509c21.176,-21.282 38.523,-39.118 52.041,-53.509l20.118,20.118c-14.371,13.444 -32.204,30.782 -53.497,52.014c21.326,21.182 39.157,38.532 53.497,52.053l-20.118,20.118c-13.831,-14.696 -31.17,-32.523 -52.023,-53.488c-21.178,21.321 -38.525,39.149 -52.044,53.488l-20.118,-20.118c14.699,-13.834 32.53,-31.177 53.5,-52.035Z" style="fill:#bc0410;"/></svg>