<?xml version="1.0" encoding="UTF-8" standalone="no"?><!DOCTYPE svg PUBLIC "-//W3C//DTD SVG 1.1//EN" "http://www.w3.org/Graphics/SVG/1.1/DTD/svg11.dtd"><svg width="100%" height="100%" viewBox="0 0 1014 430" version="1.1" xmlns="http://www.w3.org/2000/svg" xmlns:xlink="http://www.w3.org/1999/xlink" xml:space="preserve" xmlns:serif="http://www.serif.com/" style="fill-rule:evenodd;clip-rule:evenodd;stroke-linejoin:round;stroke-miterlimit:2;"><g id="ORIGINAL-TAP-REC" serif:id="ORIGINAL TAP REC"><path d="M1014,33.606l-0,362.843c-0,18.517 -15.034,33.551 -33.551,33.551l-946.898,0c-18.517,0 -33.551,-15.034 -33.551,-33.551l0,-362.843c0,-18.517 15.034,-33.551 33.551,-33.551l946.898,0c18.517,0 33.551,15.034 33.551,33.551Z" style="fill:#ffe4c3;"/><g id="Line"><path d="M47.427,405.506c-13.179,-0.517 -28.331,-0.944 -26.987,-7.072c1.448,-6.605 23.514,-5.218 28.934,-5.429c14.24,-0.554 44.218,0.427 58.929,0.37c20.696,-0.08 40.626,-4.392 41.947,6.971c0.558,4.802 -15.583,4.691 -33.578,4.878c-24.105,0.25 -44.024,1.271 -69.245,0.282Z" style="fill:#fffbfb;fill-rule:nonzero;"/><path d="M330.485,405.506c-13.18,-0.517 -28.331,-0.944 -26.988,-7.072c1.448,-6.605 23.515,-5.218 28.935,-5.429c14.24,-0.554 44.217,0.427 58.929,0.37c20.696,-0.08 40.625,-4.392 41.947,6.971c0.558,4.802 -15.584,4.691 -33.578,4.878c-24.105,0.25 -44.024,1.271 -69.245,0.282Z" style="fill:#fffbfb;fill-rule:nonzero;"/><path d="M281.883,393.227c3.306,0 5.99,2.685 5.99,5.991c0,3.306 -2.684,5.991 -5.99,5.991c-2.84,-0 -5.22,-0.506 -5.836,-3.402c-0.101,-0.476 -0.155,-3.29 -0.155,-3.757c0,-3.306 2.685,-4.823 5.991,-4.823Z" style="fill:#fffbfb;"/><path d="M171.795,393.227c3.307,0 5.991,2.685 5.991,5.991c-0,3.306 -2.684,5.991 -5.991,5.991c-2.839,-0 -5.22,-0.506 -5.836,-3.402c-0.101,-0.476 -0.154,-3.29 -0.154,-3.757c-0,-3.306 2.684,-4.823 5.99,-4.823Z" style="fill:#fffbfb;"/><path d="M199.317,393.227c3.306,0 5.991,2.685 5.991,5.991c-0,3.306 -2.685,5.991 -5.991,5.991c-2.839,-0 -5.22,-0.506 -5.836,-3.402c-0.101,-0.476 -0.154,-3.29 -0.154,-3.757c-0,-3.306 2.684,-4.823 5.99,-4.823Z" style="fill:#fffbfb;"/><path d="M226.839,393.227c3.306,0 5.991,2.685 5.991,5.991c-0,3.306 -2.685,5.991 -5.991,5.991c-2.839,-0 -5.22,-0.506 -5.836,-3.402c-0.101,-0.476 -0.155,-3.29 -0.155,-3.757c0,-3.306 2.685,-4.823 5.991,-4.823Z" style="fill:#fffbfb;"/><path d="M254.361,393.227c3.306,0 5.991,2.685 5.991,5.991c-0,3.306 -2.685,5.991 -5.991,5.991c-2.84,-0 -5.22,-0.506 -5.836,-3.402c-0.101,-0.476 -0.155,-3.29 -0.155,-3.757c0,-3.306 2.685,-4.823 5.991,-4.823Z" style="fill:#fffbfb;"/><path d="M564.941,393.227c3.306,0 5.99,2.685 5.99,5.991c0,3.306 -2.684,5.991 -5.99,5.991c-2.84,-0 -5.221,-0.506 -5.836,-3.402c-0.102,-0.476 -0.155,-3.29 -0.155,-3.757c-0,-3.306 2.684,-4.823 5.991,-4.823Z" style="fill:#fffbfb;"/><path d="M454.853,393.227c3.306,0 5.991,2.685 5.991,5.991c-0,3.306 -2.685,5.991 -5.991,5.991c-2.84,-0 -5.22,-0.506 -5.836,-3.402c-0.101,-0.476 -0.155,-3.29 -0.155,-3.757c0,-3.306 2.685,-4.823 5.991,-4.823Z" style="fill:#fffbfb;"/><path d="M482.375,393.227c3.306,0 5.991,2.685 5.991,5.991c-0,3.306 -2.685,5.991 -5.991,5.991c-2.84,-0 -5.22,-0.506 -5.836,-3.402c-0.101,-0.476 -0.155,-3.29 -0.155,-3.757c0,-3.306 2.685,-4.823 5.991,-4.823Z" style="fill:#fffbfb;"/><path d="M509.897,393.227c3.306,0 5.99,2.685 5.99,5.991c0,3.306 -2.684,5.991 -5.99,5.991c-2.84,-0 -5.221,-0.506 -5.836,-3.402c-0.101,-0.476 -0.155,-3.29 -0.155,-3.757c0,-3.306 2.684,-4.823 5.991,-4.823Z" style="fill:#fffbfb;"/><path d="M537.419,393.227c3.306,0 5.99,2.685 5.99,5.991c0,3.306 -2.684,5.991 -5.99,5.991c-2.84,-0 -5.221,-0.506 -5.836,-3.402c-0.101,-0.476 -0.155,-3.29 -0.155,-3.757c0,-3.306 2.684,-4.823 5.991,-4.823Z" style="fill:#fffbfb;"/><path d="M613.542,405.506c-13.179,-0.517 -28.33,-0.944 -26.987,-7.072c1.448,-6.605 23.515,-5.218 28.934,-5.429c14.241,-0.554 44.218,0.427 58.93,0.37c20.695,-0.08 40.625,-4.392 41.946,6.971c0.559,4.802 -15.583,4.691 -33.577,4.878c-24.106,0.25 -44.024,1.271 -69.246,0.282Z" style="fill:#fffbfb;fill-rule:nonzero;"/><path d="M896.6,405.506c-13.179,-0.517 -28.33,-0.944 -26.987,-7.072c1.448,-6.605 23.514,-5.218 28.934,-5.429c14.24,-0.554 44.218,0.427 58.93,0.37c20.695,-0.08 40.625,-4.392 41.946,6.971c0.558,4.802 -15.583,4.691 -33.578,4.878c-24.105,0.25 -44.024,1.271 -69.245,0.282Z" style="fill:#fffbfb;fill-rule:nonzero;"/><path d="M847.998,393.227c3.307,0 5.991,2.685 5.991,5.991c-0,3.306 -2.684,5.991 -5.991,5.991c-2.839,-0 -5.22,-0.506 -5.836,-3.402c-0.101,-0.476 -0.154,-3.29 -0.154,-3.757c-0,-3.306 2.684,-4.823 5.99,-4.823Z" style="fill:#fffbfb;"/><path d="M737.911,393.227c3.306,0 5.99,2.685 5.99,5.991c0,3.306 -2.684,5.991 -5.99,5.991c-2.84,-0 -5.221,-0.506 -5.836,-3.402c-0.101,-0.476 -0.155,-3.29 -0.155,-3.757c0,-3.306 2.684,-4.823 5.991,-4.823Z" style="fill:#fffbfb;"/><path d="M792.954,393.227c3.307,0 5.991,2.685 5.991,5.991c0,3.306 -2.684,5.991 -5.991,5.991c-2.839,-0 -5.22,-0.506 -5.835,-3.402c-0.102,-0.476 -0.155,-3.29 -0.155,-3.757c-0,-3.306 2.684,-4.823 5.99,-4.823Z" style="fill:#fffbfb;"/><path d="M765.433,393.227c3.306,0 5.99,2.685 5.99,5.991c0,3.306 -2.684,5.991 -5.99,5.991c-2.84,-0 -5.221,-0.506 -5.836,-3.402c-0.102,-0.476 -0.155,-3.29 -0.155,-3.757c-0,-3.306 2.684,-4.823 5.991,-4.823Z" style="fill:#fffbfb;"/><path d="M820.476,393.227c3.307,0 5.991,2.685 5.991,5.991c0,3.306 -2.684,5.991 -5.991,5.991c-2.839,-0 -5.22,-0.506 -5.836,-3.402c-0.101,-0.476 -0.154,-3.29 -0.154,-3.757c-0,-3.306 2.684,-4.823 5.99,-4.823Z" style="fill:#fffbfb;"/></g><g id="Line1" serif:id="Line"><path d="M41.2,35.389c-13.179,-0.517 -28.33,-0.945 -26.987,-7.073c1.448,-6.605 23.514,-5.218 28.934,-5.428c14.24,-0.554 44.218,0.426 58.93,0.37c20.695,-0.08 40.625,-4.393 41.946,6.971c0.558,4.802 -15.583,4.691 -33.578,4.878c-24.105,0.25 -44.024,1.271 -69.245,0.282Z" style="fill:#fffdfd;fill-rule:nonzero;"/><path d="M269.193,23.831c3.307,-0 5.991,2.684 5.991,5.99c0,3.307 -2.684,5.991 -5.991,5.991c-2.839,-0 -5.22,-0.505 -5.835,-3.402c-0.102,-0.476 -0.155,-3.29 -0.155,-3.757c-0,-3.306 2.684,-4.822 5.99,-4.822Z" style="fill:#fffdfd;"/><path d="M171.917,23.831c3.307,-0 5.991,2.684 5.991,5.99c-0,3.307 -2.684,5.991 -5.991,5.991c-2.839,-0 -5.22,-0.505 -5.836,-3.402c-0.101,-0.476 -0.154,-3.29 -0.154,-3.757c-0,-3.306 2.684,-4.822 5.99,-4.822Z" style="fill:#fffdfd;"/><path d="M196.236,23.831c3.307,-0 5.991,2.684 5.991,5.99c-0,3.307 -2.684,5.991 -5.991,5.991c-2.839,-0 -5.22,-0.505 -5.836,-3.402c-0.101,-0.476 -0.154,-3.29 -0.154,-3.757c-0,-3.306 2.684,-4.822 5.99,-4.822Z" style="fill:#fffdfd;"/><path d="M220.555,23.831c3.307,-0 5.991,2.684 5.991,5.99c-0,3.307 -2.684,5.991 -5.991,5.991c-2.839,-0 -5.22,-0.505 -5.836,-3.402c-0.101,-0.476 -0.154,-3.29 -0.154,-3.757c-0,-3.306 2.684,-4.822 5.99,-4.822Z" style="fill:#fffdfd;"/><path d="M244.874,23.831c3.307,-0 5.991,2.684 5.991,5.99c0,3.307 -2.684,5.991 -5.991,5.991c-2.839,-0 -5.22,-0.505 -5.836,-3.402c-0.101,-0.476 -0.154,-3.29 -0.154,-3.757c-0,-3.306 2.684,-4.822 5.99,-4.822Z" style="fill:#fffdfd;"/><path d="M890.373,34.83c-13.179,-0.517 -28.33,-0.945 -26.987,-7.073c1.448,-6.605 23.515,-5.218 28.934,-5.428c14.24,-0.554 44.218,0.427 58.93,0.37c20.695,-0.08 40.625,-4.393 41.946,6.971c0.559,4.802 -15.583,4.691 -33.578,4.878c-24.105,0.25 -44.024,1.271 -69.245,0.282Z" style="fill:#fffdfd;fill-rule:nonzero;"/><path d="M836.193,21.831c3.307,-0 5.991,2.684 5.991,5.99c0,3.307 -2.684,5.991 -5.991,5.991c-2.839,-0 -5.22,-0.505 -5.835,-3.402c-0.102,-0.476 -0.155,-3.29 -0.155,-3.757c-0,-3.306 2.684,-4.822 5.99,-4.822Z" style="fill:#fffdfd;"/><path d="M738.917,21.831c3.307,-0 5.991,2.684 5.991,5.99c-0,3.307 -2.684,5.991 -5.991,5.991c-2.839,-0 -5.22,-0.505 -5.836,-3.402c-0.101,-0.476 -0.154,-3.29 -0.154,-3.757c-0,-3.306 2.684,-4.822 5.99,-4.822Z" style="fill:#fffdfd;"/><path d="M763.236,21.831c3.307,-0 5.991,2.684 5.991,5.99c-0,3.307 -2.684,5.991 -5.991,5.991c-2.839,-0 -5.22,-0.505 -5.836,-3.402c-0.101,-0.476 -0.154,-3.29 -0.154,-3.757c-0,-3.306 2.684,-4.822 5.99,-4.822Z" style="fill:#fffdfd;"/><path d="M787.555,21.831c3.307,-0 5.991,2.684 5.991,5.99c-0,3.307 -2.684,5.991 -5.991,5.991c-2.839,-0 -5.22,-0.505 -5.836,-3.402c-0.101,-0.476 -0.154,-3.29 -0.154,-3.757c-0,-3.306 2.684,-4.822 5.99,-4.822Z" style="fill:#fffdfd;"/><path d="M811.874,21.831c3.307,-0 5.991,2.684 5.991,5.99c0,3.307 -2.684,5.991 -5.991,5.991c-2.839,-0 -5.22,-0.505 -5.836,-3.402c-0.101,-0.476 -0.154,-3.29 -0.154,-3.757c-0,-3.306 2.684,-4.822 5.99,-4.822Z" style="fill:#fffdfd;"/></g></g></svg>