<?xml version="1.0" encoding="UTF-8" standalone="no"?><!DOCTYPE svg PUBLIC "-//W3C//DTD SVG 1.1//EN" "http://www.w3.org/Graphics/SVG/1.1/DTD/svg11.dtd"><svg width="100%" height="100%" viewBox="0 0 946 688" version="1.1" xmlns="http://www.w3.org/2000/svg" xmlns:xlink="http://www.w3.org/1999/xlink" xml:space="preserve" xmlns:serif="http://www.serif.com/" style="fill-rule:evenodd;clip-rule:evenodd;stroke-linejoin:round;stroke-miterlimit:2;"><g><path d="M370.518,28.806c-26.344,-25.499 -59.215,-33.77 -98.595,-24.808c-40.364,9.186 -66.489,31.652 -78.383,67.394c-11.892,35.749 -11.729,80.469 0.493,134.176c11.112,48.825 29.518,86.834 55.219,114.02c25.703,27.193 59.219,36.079 100.56,26.671c38.732,-8.814 64.731,-29.96 77.995,-63.454c13.259,-33.484 13.783,-77.085 1.561,-130.792c-12.889,-56.637 -32.504,-97.701 -58.85,-123.207Zm22.804,233.346c-8.17,24.286 -25.602,39.463 -52.288,45.536c-52.731,12 -88.874,-24.966 -108.429,-110.898c-12.37,-54.355 -13.145,-92.349 -2.319,-113.99c10.821,-21.631 27.627,-35.045 50.415,-40.23c27.014,-6.148 49.467,0.385 67.366,19.589c17.892,19.214 32.138,52.088 42.73,98.631c9.852,43.294 10.69,77.085 2.525,101.362Z" style="fill:#bc0410;fill-rule:nonzero;"/><path d="M649.068,142.584c-10.814,-47.52 -19.548,-88.155 -26.201,-121.906l-40.525,9.222c5.909,22.968 14.607,59.672 26.088,110.121l-83.979,19.111l-8.067,-37.706c-4.667,-20.506 -9.864,-44.824 -15.579,-72.971l-39.06,8.889c12.354,51.286 22.051,92.385 29.088,123.304c7.186,31.576 16.005,71.847 26.468,120.819l38.571,-8.777l-22.643,-94.986l83.978,-19.111c5.556,24.412 12.45,56.223 20.691,95.43l40.036,-9.111c-11.026,-45.418 -20.643,-86.197 -28.866,-122.328Z" style="fill:#bc0410;fill-rule:nonzero;"/><path d="M183.806,562.297c20.712,-106.048 37.154,-184.251 49.316,-234.609l-42.477,9.667c-3.678,24.459 -9.164,54.898 -16.454,91.301c-7.296,36.412 -13.809,67.591 -19.538,93.544c-40.438,-55.839 -76.127,-106.605 -107.065,-152.29l-43.454,9.889c52.988,67.37 99.983,130.97 140.989,190.788c1.45,7.886 5.662,27.132 12.623,57.724l12.956,59.189l40.037,-9.111l-26.933,-116.092Z" style="fill:#bc0410;fill-rule:nonzero;"/><path d="M347.319,430.083c11.718,-2.667 23.511,-5.005 35.376,-7.024l-8.666,-38.083l-119.132,27.111c5.02,19.062 14.459,59.024 28.309,119.887c14.075,61.847 23.117,103.094 27.135,123.748l119.132,-27.111l-8.778,-38.571c-5.464,1.588 -18.121,4.637 -37.972,9.155l-41.989,9.555l-15.667,-68.843c6.763,-1.876 18.275,-4.672 34.555,-8.377c15.624,-3.555 26.075,-5.757 31.359,-6.623l-7.889,-34.665c-3.832,1.217 -13.56,3.599 -29.184,7.155l-36.618,8.333c-6.74,-29.615 -11.469,-51.134 -14.179,-64.559c14.82,-4.055 29.561,-7.755 44.208,-11.088Z" style="fill:#bc0410;fill-rule:nonzero;"/><path d="M586.8,593.322l40.524,-9.222c-5.124,-18.004 -12.204,-46.859 -21.242,-86.575l-14.401,-65.536c-6.74,-29.615 -19.164,-51.101 -37.261,-64.442c-18.104,-13.34 -39.683,-17.16 -64.744,-11.456c-25.389,5.777 -43.274,18.578 -53.655,38.4c-10.382,19.823 -12.201,44.549 -5.461,74.164l13.71,57.991c8.297,36.458 14.788,68.015 19.491,94.676l41.013,-9.334c-5.791,-20.932 -11.576,-44.097 -17.353,-69.486l84.954,-19.333c5.778,25.389 10.587,48.776 14.425,70.153Zm-116.372,-177.39c5.008,-11.065 14.355,-18.159 28.026,-21.27c13.671,-3.111 25.159,-0.759 34.47,7.048c9.305,7.816 16.038,20.831 20.185,39.057l11.489,48.225l-84.955,19.333l-10.512,-48.447c-4.147,-18.226 -3.717,-32.871 1.297,-43.946Z" style="fill:#bc0410;fill-rule:nonzero;"/><path d="M807.916,414.105c-10.814,-47.52 -19.548,-88.155 -26.201,-121.906l-40.525,9.222c5.909,22.968 14.607,59.672 26.088,110.121l-83.979,19.111l-8.067,-37.706c-4.667,-20.506 -9.864,-44.824 -15.579,-72.971l-39.06,8.889c12.354,51.286 22.051,92.385 29.088,123.304c7.186,31.576 16.005,71.847 26.468,120.819l38.571,-8.777l-22.643,-94.986l83.978,-19.111c5.556,24.412 12.45,56.223 20.691,95.43l40.036,-9.111c-11.026,-45.418 -20.643,-86.197 -28.866,-122.328Z" style="fill:#bc0410;fill-rule:nonzero;"/><path d="M828.324,219.454l40.037,-9.111c4.974,24.89 13.987,65.975 27.023,123.26c10.594,46.552 18.383,80.036 23.377,100.468l-39.548,9c-10.462,-48.972 -18.504,-85.826 -24.134,-110.566c-5.481,-24.084 -14.401,-61.765 -26.755,-113.051Zm65.936,298.763c-7.593,-4.771 -12.349,-11.392 -14.276,-19.86c-2,-8.788 -0.614,-16.975 4.165,-24.57c4.773,-7.586 11.392,-12.35 19.86,-14.277c8.461,-1.925 16.489,-0.495 24.082,4.277c7.588,4.78 12.388,11.56 14.388,20.348c1.927,8.468 0.497,16.497 -4.277,24.082c-4.779,7.595 -11.399,12.351 -19.86,14.277c-8.468,1.927 -16.494,0.504 -24.082,-4.277Z" style="fill:#bc0410;fill-rule:nonzero;"/></g></svg>