<?xml version="1.0" encoding="UTF-8" standalone="no"?><!DOCTYPE svg PUBLIC "-//W3C//DTD SVG 1.1//EN" "http://www.w3.org/Graphics/SVG/1.1/DTD/svg11.dtd"><svg width="100%" height="100%" viewBox="0 0 1605 396" version="1.1" xmlns="http://www.w3.org/2000/svg" xmlns:xlink="http://www.w3.org/1999/xlink" xml:space="preserve" xmlns:serif="http://www.serif.com/" style="fill-rule:evenodd;clip-rule:evenodd;stroke-linejoin:round;stroke-miterlimit:2;"><g id="BUTTON"><path d="M1603.53,197.54c0,108.084 -87.75,195.833 -195.833,195.833l-1207.92,0c-108.083,0 -195.833,-87.749 -195.833,-195.833c0,-108.083 87.75,-195.833 195.833,-195.833l1207.92,-0c108.083,-0 195.833,87.75 195.833,195.833Z" style="fill:#ec7920;"/><g><path d="M245.836,115.73l0,19.155c-4.154,-0.307 -14.001,-0.693 -29.539,-1.154c-1.54,-0.152 -3.617,-0.231 -6.231,-0.231c-0.31,20.002 -0.461,36.617 -0.461,49.847c-0,17.849 0.151,40.772 0.461,68.772l0.231,19.154l-19.385,-0c0.461,-24.769 0.692,-52 0.692,-81.695c0,-25.23 -0.155,-43.847 -0.462,-55.847c-5.077,-0 -11.001,0.115 -17.769,0.346c-6.772,0.231 -12.08,0.501 -15.924,0.808l0,-19.155l88.387,0Z" style="fill:#fff;fill-rule:nonzero;"/><path d="M347.839,271.273l20.308,-0c-0.771,-16.306 -1.153,-49.386 -1.153,-99.234c-0,-19.23 -4.079,-33.808 -12.232,-43.732c-8.156,-9.923 -19.078,-14.885 -32.77,-14.885c-13.695,0 -24.657,4.962 -32.885,14.885c-8.232,9.924 -12.347,24.502 -12.347,43.732l0,15.232c0,43.696 -0.31,71.695 -0.923,84.002l20.308,-0c-0.616,-11.229 -0.923,-27.383 -0.923,-48.463l53.54,0c0,15.386 -0.31,31.541 -0.923,48.463Zm0.923,-66.694l-53.77,-0l0.23,-29.539c0,-13.385 2.038,-23.922 6.116,-31.617c4.075,-7.691 10.962,-11.539 20.654,-11.539c17.846,0 26.77,14.388 26.77,43.156l0,29.539Z" style="fill:#fff;fill-rule:nonzero;"/><path d="M490.343,130.615c-9.155,-9.768 -21.657,-14.654 -37.501,-14.654l-35.078,-0c0.462,24.462 0.693,50.695 0.693,78.694c-0,27.694 -0.231,53.234 -0.693,76.618l19.616,-0l-0.461,-52.617c6.613,2.769 13.46,4.154 20.539,4.154c8.921,0 16.922,-2.192 24,-6.577c7.075,-4.385 12.614,-10.536 16.616,-18.462c3.999,-7.922 6,-16.962 6,-27.116c0,-16.923 -4.579,-30.268 -13.731,-40.04Zm-13.154,65.656c-5.618,5.538 -12.195,8.308 -19.731,8.308c-3.848,-0 -7.616,-0.498 -11.308,-1.5c-3.693,-0.999 -6.772,-2.344 -9.231,-4.039l-0,-19.154c-0,-20.153 0.075,-34.768 0.23,-43.848c5.229,-1.229 10.461,-1.846 15.693,-1.846c12.462,0 21.037,3.732 25.732,11.193c4.691,7.464 7.038,15.887 7.038,25.27c0,11.539 -2.809,20.077 -8.423,25.616Z" style="fill:#fff;fill-rule:nonzero;"/><path d="M687.079,115.73l0,19.155c-4.154,-0.307 -14.001,-0.693 -29.539,-1.154c-1.54,-0.152 -3.617,-0.231 -6.231,-0.231c-0.31,20.002 -0.461,36.617 -0.461,49.847c-0,17.849 0.151,40.772 0.461,68.772l0.231,19.154l-19.385,-0c0.461,-24.769 0.692,-52 0.692,-81.695c0,-25.23 -0.155,-43.847 -0.461,-55.847c-5.077,-0 -11.002,0.115 -17.77,0.346c-6.772,0.231 -12.08,0.501 -15.924,0.808l0,-19.155l88.387,0Z" style="fill:#fff;fill-rule:nonzero;"/><path d="M811.006,133.961c-9.231,-14.153 -23.157,-21.231 -41.77,-21.231c-19.079,0 -33.117,7.425 -42.117,22.27c-9,14.849 -13.5,34.962 -13.5,60.348c-0,23.077 4.384,42.041 13.154,56.886c8.769,14.849 22.922,22.27 42.463,22.27c18.307,-0 32.153,-6.844 41.539,-20.539c9.383,-13.692 14.078,-33.232 14.078,-58.617c-0,-26.77 -4.616,-47.23 -13.847,-61.387Zm-13.616,107.196c-6.155,10.078 -15.541,15.116 -28.154,15.116c-24.924,-0 -37.386,-20.309 -37.386,-60.925c-0,-25.692 3.537,-42.845 10.616,-51.463c7.074,-8.615 15.999,-12.924 26.77,-12.924c12.768,0 22.19,5.232 28.27,15.693c6.075,10.464 9.115,26.694 9.115,48.694c0,20.463 -3.079,35.734 -9.231,45.809Z" style="fill:#fff;fill-rule:nonzero;"/><path d="M1030.93,165.116l1.154,0l0,19.385c0,22.771 -0.31,51.694 -0.923,86.772l19.616,-0l-0.231,-19.847c-0.31,-29.846 -0.461,-54.539 -0.461,-74.079c-0,-23.69 0.23,-44.154 0.692,-61.386l-20.078,-0c-7.078,20.618 -18.617,51.849 -34.616,93.695l-1.154,-0c-15.848,-41.846 -27.311,-73.077 -34.385,-93.695l-20.309,-0c0.462,24.462 0.693,50.695 0.693,78.694c-0,27.694 -0.231,53.234 -0.693,76.618l19.616,-0c0,-4.154 -0.155,-11.459 -0.461,-21.924c-0.617,-34.155 -0.923,-62.23 -0.923,-84.233l1.384,0c8.46,22.771 17.921,48.694 28.386,77.772l14.539,-0c10.154,-29.078 19.536,-55.001 28.154,-77.772Z" style="fill:#fff;fill-rule:nonzero;"/><path d="M1172.4,271.273l20.308,-0c-0.772,-16.306 -1.154,-49.386 -1.154,-99.234c0,-19.23 -4.078,-33.808 -12.231,-43.732c-8.157,-9.923 -19.079,-14.885 -32.77,-14.885c-13.695,0 -24.657,4.962 -32.886,14.885c-8.232,9.924 -12.346,24.502 -12.346,43.732l-0,15.232c-0,43.696 -0.31,71.695 -0.923,84.002l20.308,-0c-0.617,-11.229 -0.923,-27.383 -0.923,-48.463l53.54,0c-0,15.386 -0.31,31.541 -0.923,48.463Zm0.923,-66.694l-53.771,-0l0.231,-29.539c-0,-13.385 2.037,-23.922 6.115,-31.617c4.075,-7.691 10.962,-11.539 20.655,-11.539c17.845,0 26.77,14.388 26.77,43.156l-0,29.539Z" style="fill:#fff;fill-rule:nonzero;"/><path d="M1316.64,239.08c-14.157,-17.153 -26.157,-33.037 -36.001,-47.655c25.385,-33.845 45.076,-59 59.078,-75.464l-23.077,-0l-55.387,71.771c0,-27.844 0.231,-51.769 0.693,-71.771l-19.616,-0c0.461,24.617 0.692,50.85 0.692,78.694c0,27.849 -0.231,53.465 -0.692,76.849l19.616,-0c-0.31,-20.615 -0.462,-38.691 -0.462,-54.233l6.923,-9.231c3.693,4.154 9.924,12.387 18.693,24.693c11.846,16.155 21.498,28.465 28.963,36.925c7.46,8.463 14.037,12.692 19.731,12.692c3.537,0 6.382,-0.923 8.539,-2.769c2.152,-1.846 3.613,-4.075 4.384,-6.693c-7.233,-5.383 -17.924,-16.652 -32.077,-33.808Z" style="fill:#fff;fill-rule:nonzero;"/><path d="M1409.18,134.654c16.154,-0 29.77,0.386 40.847,1.154l-0,-19.616l-74.771,-0c0.461,18.155 0.692,43.696 0.692,76.617c-0,32.619 -0.231,58.848 -0.692,78.695l74.771,-0l-0,-18.924c-7.385,0.462 -16.003,0.692 -25.847,0.692c-12,0 -22.003,-0.151 -30.001,-0.461l-0.231,-49.155l19.616,-0.231c9.231,-0 18.152,0.155 26.77,0.461l0,-18.231c-4.309,0.31 -9.462,0.462 -15.462,0.462c-9.386,-0 -19.616,-0.152 -30.693,-0.462c0,-23.384 0.076,-40.306 0.231,-50.77l14.77,-0.231Z" style="fill:#fff;fill-rule:nonzero;"/></g></g></svg>