<?xml version="1.0" encoding="UTF-8" standalone="no"?><!DOCTYPE svg PUBLIC "-//W3C//DTD SVG 1.1//EN" "http://www.w3.org/Graphics/SVG/1.1/DTD/svg11.dtd"><svg width="100%" height="100%" viewBox="0 0 2842 396" version="1.1" xmlns="http://www.w3.org/2000/svg" xmlns:xlink="http://www.w3.org/1999/xlink" xml:space="preserve" xmlns:serif="http://www.serif.com/" style="fill-rule:evenodd;clip-rule:evenodd;stroke-linejoin:round;stroke-miterlimit:2;"><g id="BUTTON"><path d="M2837.87,198.765c-0,108.083 -87.75,195.833 -195.834,195.833l-2442.34,0c-108.083,0 -195.833,-87.75 -195.833,-195.833c-0,-108.083 87.75,-195.833 195.833,-195.833l2442.34,-0c108.084,-0 195.834,87.75 195.834,195.833Z" style="fill:#ec7920;"/><g><path d="M356.296,135.186l-11.539,14.308c-10.003,-10.305 -21.693,-15.462 -35.078,-15.462c-7.078,0 -13.194,2.077 -18.347,6.231c-5.156,4.154 -7.731,9.848 -7.731,17.078c0,5.077 2.73,9.656 8.193,13.731c5.459,4.078 14.193,9.346 26.193,15.808c12.924,6.923 23.153,13.695 30.693,20.308c7.537,6.617 11.308,14.308 11.308,23.078c0,7.54 -1.695,14.734 -5.077,21.577c-3.386,6.848 -8.849,12.502 -16.385,16.962c-7.54,4.465 -17.077,6.693 -28.616,6.693c-11.539,-0 -21.347,-2.384 -29.424,-7.154c-8.077,-4.767 -16.27,-11.384 -24.578,-19.847l13.385,-14.539c6.462,6.924 12.845,12.542 19.155,16.847c6.306,4.309 13.46,6.462 21.462,6.462c9.382,-0 16.922,-2.229 22.616,-6.693c5.69,-4.46 8.539,-10.691 8.539,-18.693c-0,-3.999 -2.041,-7.651 -6.116,-10.961c-4.078,-3.307 -10.886,-7.652 -20.424,-13.039l-9.923,-5.77c-12.462,-7.385 -22.234,-14.499 -29.308,-21.346c-7.079,-6.844 -10.616,-14.655 -10.616,-23.424c-0,-7.385 1.731,-14.344 5.192,-20.885c3.462,-6.538 8.539,-11.77 15.232,-15.693c6.692,-3.923 14.499,-5.885 23.423,-5.885c7.075,0 13.998,1.233 20.77,3.692c6.768,2.463 12.729,5.694 17.885,9.693c5.153,4.003 8.193,6.31 9.116,6.923Z" style="fill:#fff;fill-rule:nonzero;"/><path d="M474.915,116.955l-0,19.154c-4.154,-0.306 -14.002,-0.692 -29.54,-1.153c-1.539,-0.152 -3.616,-0.231 -6.231,-0.231c-0.31,20.002 -0.461,36.617 -0.461,49.847c-0,17.849 0.151,40.772 0.461,68.771l0.231,19.155l-19.385,-0c0.461,-24.769 0.692,-52 0.692,-81.695c0,-25.23 -0.155,-43.847 -0.461,-55.847c-5.077,-0 -11.002,0.115 -17.77,0.346c-6.772,0.231 -12.08,0.501 -15.924,0.807l0,-19.154l88.388,0Z" style="fill:#fff;fill-rule:nonzero;"/><path d="M576.917,272.498l20.309,-0c-0.772,-16.306 -1.154,-49.386 -1.154,-99.234c-0,-19.23 -4.078,-33.808 -12.231,-43.732c-8.157,-9.923 -19.079,-14.885 -32.77,-14.885c-13.696,0 -24.657,4.962 -32.886,14.885c-8.232,9.924 -12.347,24.502 -12.347,43.732l0,15.232c0,43.695 -0.31,71.695 -0.923,84.002l20.309,-0c-0.617,-11.229 -0.923,-27.383 -0.923,-48.463l53.539,-0c0,15.386 -0.31,31.541 -0.923,48.463Zm0.923,-66.694l-53.77,-0l0.231,-29.54c-0,-13.385 2.037,-23.921 6.115,-31.616c4.075,-7.691 10.962,-11.539 20.655,-11.539c17.845,0 26.769,14.388 26.769,43.155l0,29.54Z" style="fill:#fff;fill-rule:nonzero;"/><path d="M730.268,249.882c-9.155,-9.693 -17.655,-19.768 -25.501,-30.232c8.77,-3.537 15.653,-9.537 20.655,-18c4.997,-8.46 7.5,-18.383 7.5,-29.77c-0,-16.768 -4.58,-30.077 -13.731,-39.925c-9.156,-9.844 -21.578,-14.769 -37.271,-14.769l-35.078,-0c0.462,24.462 0.693,50.695 0.693,78.694c-0,27.693 -0.231,53.234 -0.693,76.618l19.616,-0c-0.31,-20.308 -0.461,-38.078 -0.461,-53.309c4.305,1.846 9.537,3.155 15.693,3.923c3.692,3.847 9.537,10.695 17.539,20.539c9.999,12.155 18.036,21.195 24.116,27.116c6.075,5.925 11.423,8.885 16.038,8.885c3.538,-0 6.383,-0.923 8.539,-2.769c2.153,-1.847 3.613,-4.075 4.385,-6.693c-5.539,-3.844 -12.887,-10.616 -22.039,-20.308Zm-64.502,-50.309c0,-28.768 0.076,-49.538 0.231,-62.31c5.538,-1.229 10.846,-1.846 15.923,-1.846c12.462,0 21.037,3.732 25.732,11.193c4.691,7.464 7.038,15.887 7.038,25.27c0,11.538 -2.808,19.926 -8.423,25.154c-5.618,5.232 -12.271,7.847 -19.962,7.847c-3.847,-0 -7.616,-0.498 -11.308,-1.5c-3.692,-0.999 -6.772,-2.269 -9.231,-3.808Z" style="fill:#fff;fill-rule:nonzero;"/><path d="M859.156,116.955l0,19.154c-4.154,-0.306 -14.002,-0.692 -29.539,-1.153c-1.54,-0.152 -3.617,-0.231 -6.231,-0.231c-0.31,20.002 -0.462,36.617 -0.462,49.847c0,17.849 0.152,40.772 0.462,68.771l0.231,19.155l-19.386,-0c0.462,-24.769 0.693,-52 0.693,-81.695c-0,-25.23 -0.155,-43.847 -0.462,-55.847c-5.077,-0 -11.001,0.115 -17.77,0.346c-6.771,0.231 -12.079,0.501 -15.923,0.807l-0,-19.154l88.387,0Z" style="fill:#fff;fill-rule:nonzero;"/><path d="M1039.85,116.955l0,19.154c-4.154,-0.306 -14.001,-0.692 -29.539,-1.153c-1.54,-0.152 -3.617,-0.231 -6.231,-0.231c-0.31,20.002 -0.461,36.617 -0.461,49.847c-0,17.849 0.151,40.772 0.461,68.771l0.231,19.155l-19.385,-0c0.461,-24.769 0.692,-52 0.692,-81.695c0,-25.23 -0.155,-43.847 -0.461,-55.847c-5.077,-0 -11.002,0.115 -17.77,0.346c-6.772,0.231 -12.08,0.501 -15.924,0.807l0,-19.154l88.387,0Z" style="fill:#fff;fill-rule:nonzero;"/><path d="M1172.78,178.803c0,-23.846 0.231,-44.385 0.693,-61.617l-19.616,-0c0.461,23.077 0.692,47.54 0.692,73.387l-57.694,-0l0,-21.232c0,-14.77 0.151,-32.153 0.462,-52.155l-19.386,-0c0.307,16.464 0.462,42.693 0.462,78.694c-0,35.695 -0.155,61.311 -0.462,76.849l19.386,-0c-0.311,-24.001 -0.462,-45.308 -0.462,-63.925l57.694,-0c-0,22.926 -0.231,44.233 -0.692,63.925l19.616,-0l-0.231,-19.847c-0.31,-30.152 -0.462,-54.845 -0.462,-74.079Z" style="fill:#fff;fill-rule:nonzero;"/><path d="M1260.48,135.879c16.154,-0 29.77,0.385 40.847,1.154l0,-19.616l-74.771,-0c0.462,18.155 0.692,43.696 0.692,76.617c0,32.619 -0.23,58.848 -0.692,78.695l74.771,-0l0,-18.924c-7.385,0.462 -16.003,0.692 -25.847,0.692c-12,0 -22.003,-0.151 -30,-0.461l-0.231,-49.155l19.616,-0.231c9.231,-0 18.152,0.155 26.77,0.461l-0,-18.231c-4.309,0.31 -9.462,0.462 -15.462,0.462c-9.386,-0 -19.616,-0.152 -30.693,-0.462c-0,-23.384 0.075,-40.306 0.23,-50.771l14.77,-0.23Z" style="fill:#fff;fill-rule:nonzero;"/><path d="M1491.25,116.955l-0,19.154c-4.154,-0.306 -14.002,-0.692 -29.54,-1.153c-1.539,-0.152 -3.616,-0.231 -6.231,-0.231c-0.31,20.002 -0.461,36.617 -0.461,49.847c-0,17.849 0.151,40.772 0.461,68.771l0.231,19.155l-19.385,-0c0.462,-24.769 0.692,-52 0.692,-81.695c0,-25.23 -0.155,-43.847 -0.461,-55.847c-5.077,-0 -11.002,0.115 -17.77,0.346c-6.772,0.231 -12.08,0.501 -15.923,0.807l-0,-19.154l88.387,0Z" style="fill:#fff;fill-rule:nonzero;"/><path d="M1548.25,178.572c0,-23.845 0.231,-44.384 0.693,-61.617l-19.616,0c0.461,24.617 0.692,50.85 0.692,78.695c-0,27.848 -0.231,53.464 -0.692,76.848l19.616,-0l-0.231,-19.847c-0.31,-30.152 -0.462,-54.845 -0.462,-74.079Z" style="fill:#fff;fill-rule:nonzero;"/><path d="M1692.72,166.341l1.154,0l-0,19.385c-0,22.771 -0.31,51.694 -0.923,86.772l19.616,-0l-0.231,-19.847c-0.31,-29.846 -0.462,-54.539 -0.462,-74.079c0,-23.69 0.231,-44.154 0.693,-61.386l-20.078,-0c-7.078,20.618 -18.617,51.849 -34.616,93.695l-1.154,-0c-15.848,-41.846 -27.311,-73.077 -34.386,-93.695l-20.308,-0c0.462,24.462 0.692,50.695 0.692,78.694c0,27.693 -0.23,53.234 -0.692,76.618l19.616,-0c-0,-4.154 -0.155,-11.46 -0.462,-21.924c-0.616,-34.155 -0.923,-62.23 -0.923,-84.233l1.385,0c8.459,22.771 17.921,48.694 28.385,77.771l14.539,0c10.154,-29.077 19.537,-55 28.155,-77.771Z" style="fill:#fff;fill-rule:nonzero;"/><path d="M1799.57,135.879c16.154,-0 29.77,0.385 40.847,1.154l0,-19.616l-74.771,-0c0.462,18.155 0.692,43.696 0.692,76.617c0,32.619 -0.23,58.848 -0.692,78.695l74.771,-0l0,-18.924c-7.385,0.462 -16.003,0.692 -25.847,0.692c-12,0 -22.003,-0.151 -30,-0.461l-0.231,-49.155l19.616,-0.231c9.231,-0 18.152,0.155 26.77,0.461l-0,-18.231c-4.309,0.31 -9.462,0.462 -15.462,0.462c-9.386,-0 -19.616,-0.152 -30.693,-0.462c-0,-23.384 0.075,-40.306 0.23,-50.771l14.77,-0.23Z" style="fill:#fff;fill-rule:nonzero;"/><path d="M1971.15,249.882c-9.156,-9.693 -17.655,-19.768 -25.501,-30.232c8.769,-3.537 15.653,-9.537 20.654,-18c4.998,-8.46 7.501,-18.383 7.501,-29.77c-0,-16.768 -4.58,-30.077 -13.732,-39.925c-9.155,-9.844 -21.577,-14.769 -37.27,-14.769l-35.078,-0c0.462,24.462 0.693,50.695 0.693,78.694c-0,27.693 -0.231,53.234 -0.693,76.618l19.616,-0c-0.31,-20.308 -0.461,-38.078 -0.461,-53.309c4.305,1.846 9.537,3.155 15.692,3.923c3.693,3.847 9.538,10.695 17.539,20.539c9.999,12.155 18.037,21.195 24.116,27.116c6.076,5.925 11.424,8.885 16.039,8.885c3.538,-0 6.383,-0.923 8.539,-2.769c2.153,-1.847 3.613,-4.075 4.385,-6.693c-5.539,-3.844 -12.888,-10.616 -22.039,-20.308Zm-64.502,-50.309c-0,-28.768 0.076,-49.538 0.231,-62.31c5.538,-1.229 10.846,-1.846 15.923,-1.846c12.462,0 21.037,3.732 25.732,11.193c4.691,7.464 7.038,15.887 7.038,25.27c0,11.538 -2.809,19.926 -8.423,25.154c-5.618,5.232 -12.271,7.847 -19.962,7.847c-3.848,-0 -7.616,-0.498 -11.308,-1.5c-3.692,-0.999 -6.772,-2.269 -9.231,-3.808Z" style="fill:#fff;fill-rule:nonzero;"/><path d="M2187.96,194.726c0,-30.307 0.231,-56.154 0.693,-77.54l-19.616,-0c0.461,23.077 0.692,47.695 0.692,73.848c0,18.462 -0.079,32.157 -0.231,41.078l-0.923,0l-52.155,-114.926l-20.539,-0c0.462,24.462 0.692,50.695 0.692,78.694c0,27.693 -0.23,53.234 -0.692,76.618l19.616,-0c-0.617,-36.001 -0.923,-68.616 -0.923,-97.849l-0,-16.154l0.923,-0l53.309,114.003l19.616,-0c-0.31,-28.923 -0.462,-54.845 -0.462,-77.772Z" style="fill:#fff;fill-rule:nonzero;"/><path d="M2332.2,135.186c-9.231,-14.153 -23.157,-21.231 -41.77,-21.231c-19.079,-0 -33.116,7.424 -42.117,22.27c-9,14.849 -13.5,34.962 -13.5,60.348c-0,23.077 4.385,42.041 13.154,56.886c8.77,14.849 22.923,22.27 42.463,22.27c18.307,-0 32.153,-6.844 41.539,-20.539c9.383,-13.692 14.078,-33.232 14.078,-58.617c-0,-26.77 -4.616,-47.23 -13.847,-61.387Zm-13.615,107.196c-6.156,10.078 -15.542,15.115 -28.155,15.115c-24.924,0 -37.386,-20.308 -37.386,-60.924c0,-25.692 3.538,-42.845 10.616,-51.463c7.075,-8.615 15.999,-12.924 26.77,-12.924c12.768,0 22.19,5.232 28.27,15.693c6.076,10.464 9.116,26.694 9.116,48.694c-0,20.463 -3.08,35.734 -9.231,45.809Z" style="fill:#fff;fill-rule:nonzero;"/><path d="M2471.12,272.498l26.078,-0l3.923,-30.693c1.385,-9.844 3.923,-28.883 7.616,-57.117c3.692,-28.231 6.844,-50.807 9.461,-67.733l-18.692,0c-3.08,27.08 -8.618,69.081 -16.616,126.004l-26.77,-110.773l-19.155,0l-26.77,110.773c-9.079,-56.461 -14.538,-98.462 -16.385,-126.004l-18.923,0c1.536,12 6.692,50.464 15.462,115.388l5.538,40.155l26.078,-0c3.692,-18.924 11.845,-52.923 24.462,-102.003c12.001,46.31 20.229,80.31 24.693,102.003Z" style="fill:#fff;fill-rule:nonzero;"/><path d="M2551.2,129.417l18.924,-0c-0.31,11.694 -0.462,31.079 -0.462,58.155c0,22.003 0.076,37.848 0.231,47.54l-18.693,0c0.307,-23.077 0.462,-40.461 0.462,-52.155c-0,-11.384 -0.155,-29.229 -0.462,-53.54Zm-0.923,141.004c-2.924,-2.921 -4.384,-6.382 -4.384,-10.385c-0,-4.154 1.46,-7.691 4.384,-10.616c2.921,-2.92 6.383,-4.384 10.385,-4.384c3.999,-0 7.461,1.464 10.385,4.384c2.921,2.925 4.385,6.462 4.385,10.616c-0,4.003 -1.464,7.464 -4.385,10.385c-2.924,2.924 -6.386,4.385 -10.385,4.385c-4.002,-0 -7.464,-1.461 -10.385,-4.385Z" style="fill:#fff;fill-rule:nonzero;"/></g></g></svg>