<?xml version="1.0" encoding="UTF-8" standalone="no"?><!DOCTYPE svg PUBLIC "-//W3C//DTD SVG 1.1//EN" "http://www.w3.org/Graphics/SVG/1.1/DTD/svg11.dtd"><svg width="100%" height="100%" viewBox="0 0 2838 396" version="1.1" xmlns="http://www.w3.org/2000/svg" xmlns:xlink="http://www.w3.org/1999/xlink" xml:space="preserve" xmlns:serif="http://www.serif.com/" style="fill-rule:evenodd;clip-rule:evenodd;stroke-linejoin:round;stroke-miterlimit:2;"><g id="BUTTON"><path d="M2837.41,197.54c-0,108.084 -87.75,195.833 -195.834,195.833l-2442.34,0c-108.083,0 -195.833,-87.749 -195.833,-195.833c-0,-108.083 87.75,-195.833 195.833,-195.833l2442.34,-0c108.084,-0 195.834,87.75 195.834,195.833Z" style="fill:#ec7920;"/><g><path d="M358.95,248.657c-9.155,-9.693 -17.654,-19.767 -25.5,-30.232c8.769,-3.537 15.653,-9.537 20.654,-18c4.998,-8.46 7.5,-18.383 7.5,-29.77c0,-16.768 -4.579,-30.077 -13.731,-39.924c-9.155,-9.844 -21.577,-14.77 -37.27,-14.77l-35.078,-0c0.462,24.462 0.692,50.695 0.692,78.694c0,27.694 -0.23,53.234 -0.692,76.618l19.616,-0c-0.31,-20.308 -0.462,-38.078 -0.462,-53.309c4.306,1.846 9.538,3.155 15.693,3.923c3.693,3.847 9.538,10.695 17.539,20.539c9.999,12.155 18.037,21.195 24.116,27.116c6.076,5.925 11.424,8.885 16.039,8.885c3.537,0 6.382,-0.923 8.539,-2.769c2.152,-1.846 3.613,-4.075 4.385,-6.693c-5.539,-3.844 -12.888,-10.615 -22.04,-20.308Zm-64.501,-50.309c-0,-28.768 0.075,-49.538 0.23,-62.31c5.539,-1.229 10.847,-1.846 15.924,-1.846c12.462,0 21.037,3.732 25.731,11.193c4.692,7.464 7.039,15.887 7.039,25.27c0,11.539 -2.809,19.926 -8.423,25.154c-5.618,5.232 -12.271,7.847 -19.962,7.847c-3.848,-0 -7.616,-0.498 -11.308,-1.5c-3.693,-0.999 -6.772,-2.268 -9.231,-3.808Z" style="fill:#fff;fill-rule:nonzero;"/><path d="M448.376,134.654c16.154,-0 29.77,0.386 40.847,1.154l0,-19.616l-74.771,-0c0.462,18.155 0.692,43.696 0.692,76.617c0,32.619 -0.23,58.848 -0.692,78.695l74.771,-0l0,-18.924c-7.385,0.462 -16.003,0.692 -25.847,0.692c-12,0 -22.003,-0.151 -30,-0.461l-0.231,-49.155l19.616,-0.231c9.231,-0 18.152,0.155 26.77,0.461l-0,-18.231c-4.309,0.31 -9.462,0.462 -15.462,0.462c-9.386,-0 -19.616,-0.152 -30.693,-0.462c-0,-23.384 0.075,-40.306 0.23,-50.77l14.77,-0.231Z" style="fill:#fff;fill-rule:nonzero;"/><path d="M627.227,165.116l1.154,0l0,19.385c0,22.771 -0.31,51.694 -0.923,86.772l19.616,-0l-0.231,-19.847c-0.31,-29.846 -0.461,-54.539 -0.461,-74.079c-0,-23.69 0.23,-44.154 0.692,-61.386l-20.078,-0c-7.078,20.618 -18.617,51.849 -34.616,93.695l-1.154,-0c-15.848,-41.846 -27.311,-73.077 -34.385,-93.695l-20.309,-0c0.462,24.462 0.693,50.695 0.693,78.694c-0,27.694 -0.231,53.234 -0.693,76.618l19.616,-0c0,-4.154 -0.155,-11.459 -0.461,-21.924c-0.617,-34.155 -0.923,-62.23 -0.923,-84.233l1.384,0c8.46,22.771 17.921,48.694 28.386,77.772l14.539,-0c10.154,-29.078 19.536,-55.001 28.154,-77.772Z" style="fill:#fff;fill-rule:nonzero;"/><path d="M734.076,134.654c16.155,-0 29.77,0.386 40.848,1.154l-0,-19.616l-74.772,-0c0.462,18.155 0.693,43.696 0.693,76.617c-0,32.619 -0.231,58.848 -0.693,78.695l74.772,-0l-0,-18.924c-7.385,0.462 -16.003,0.692 -25.847,0.692c-12.001,0 -22.003,-0.151 -30.001,-0.461l-0.231,-49.155l19.616,-0.231c9.231,-0 18.152,0.155 26.77,0.461l0,-18.231c-4.309,0.31 -9.462,0.462 -15.462,0.462c-9.386,-0 -19.616,-0.152 -30.693,-0.462c-0,-23.384 0.076,-40.306 0.231,-50.77l14.769,-0.231Z" style="fill:#fff;fill-rule:nonzero;"/><path d="M912.927,165.116l1.154,0l0,19.385c0,22.771 -0.31,51.694 -0.923,86.772l19.616,-0l-0.231,-19.847c-0.31,-29.846 -0.461,-54.539 -0.461,-74.079c-0,-23.69 0.231,-44.154 0.692,-61.386l-20.077,-0c-7.079,20.618 -18.617,51.849 -34.617,93.695l-1.154,-0c-15.847,-41.846 -27.31,-73.077 -34.385,-93.695l-20.308,-0c0.461,24.462 0.692,50.695 0.692,78.694c-0,27.694 -0.231,53.234 -0.692,76.618l19.616,-0c-0,-4.154 -0.155,-11.459 -0.462,-21.924c-0.617,-34.155 -0.923,-62.23 -0.923,-84.233l1.385,0c8.459,22.771 17.921,48.694 28.385,77.772l14.539,-0c10.154,-29.078 19.536,-55.001 28.154,-77.772Z" style="fill:#fff;fill-rule:nonzero;"/><path d="M1073.09,200.309c-5.077,-6.999 -12.311,-11.884 -21.693,-14.654c4.46,-3.076 7.962,-7.114 10.5,-12.116c2.539,-4.997 3.808,-10.731 3.808,-17.192c-0,-12.924 -3.31,-22.847 -9.923,-29.77c-6.617,-6.924 -15.848,-10.385 -27.693,-10.385l-42.232,-0c0.613,17.232 0.923,43.003 0.923,77.31c-0,34.154 -0.31,60.156 -0.923,78.002l47.078,-0c15.382,-0 27.192,-3.923 35.424,-11.77c8.228,-7.846 12.346,-18.768 12.346,-32.77c0,-10.767 -2.538,-19.652 -7.615,-26.655Zm-33.693,-62.886c5.077,3.541 7.615,10.385 7.615,20.539c0,7.233 -2.347,12.924 -7.039,17.078c-4.694,4.153 -10.424,6.23 -17.192,6.23c-4.464,0 -7.811,-0.115 -10.039,-0.346c-2.232,-0.23 -4.579,-0.728 -7.039,-1.5c0,-18.307 0.152,-33.152 0.462,-44.539c4.305,-1.847 9.768,-2.77 16.385,-2.77c6.152,0 11.769,1.771 16.847,5.308Zm20.769,87.926c0,18.617 -11.001,27.923 -33.001,27.923c-4.77,0 -8.769,-0.115 -12,-0.346c-3.231,-0.23 -6.31,-0.807 -9.231,-1.731c-0.155,-9.692 -0.231,-26.845 -0.231,-51.462c4.306,-0.462 9.693,-0.693 16.155,-0.693c11.538,0 20.805,2.041 27.808,6.116c6.999,4.078 10.5,10.81 10.5,20.193Z" style="fill:#fff;fill-rule:nonzero;"/><path d="M1157.32,134.654c16.154,-0 29.77,0.386 40.847,1.154l0,-19.616l-74.771,-0c0.461,18.155 0.692,43.696 0.692,76.617c0,32.619 -0.231,58.848 -0.692,78.695l74.771,-0l0,-18.924c-7.385,0.462 -16.003,0.692 -25.847,0.692c-12,0 -22.003,-0.151 -30,-0.461l-0.231,-49.155l19.616,-0.231c9.231,-0 18.152,0.155 26.77,0.461l-0,-18.231c-4.309,0.31 -9.462,0.462 -15.462,0.462c-9.386,-0 -19.616,-0.152 -30.693,-0.462c-0,-23.384 0.075,-40.306 0.23,-50.77l14.77,-0.231Z" style="fill:#fff;fill-rule:nonzero;"/><path d="M1328.9,248.657c-9.156,-9.693 -17.655,-19.767 -25.501,-30.232c8.769,-3.537 15.653,-9.537 20.654,-18c4.998,-8.46 7.501,-18.383 7.501,-29.77c-0,-16.768 -4.58,-30.077 -13.732,-39.924c-9.155,-9.844 -21.577,-14.77 -37.27,-14.77l-35.078,-0c0.462,24.462 0.693,50.695 0.693,78.694c-0,27.694 -0.231,53.234 -0.693,76.618l19.616,-0c-0.31,-20.308 -0.461,-38.078 -0.461,-53.309c4.305,1.846 9.537,3.155 15.692,3.923c3.693,3.847 9.538,10.695 17.539,20.539c9.999,12.155 18.037,21.195 24.116,27.116c6.076,5.925 11.424,8.885 16.039,8.885c3.538,0 6.383,-0.923 8.539,-2.769c2.153,-1.846 3.613,-4.075 4.385,-6.693c-5.539,-3.844 -12.888,-10.615 -22.039,-20.308Zm-64.502,-50.309c-0,-28.768 0.076,-49.538 0.231,-62.31c5.538,-1.229 10.846,-1.846 15.923,-1.846c12.462,0 21.037,3.732 25.732,11.193c4.691,7.464 7.038,15.887 7.038,25.27c0,11.539 -2.809,19.926 -8.423,25.154c-5.618,5.232 -12.271,7.847 -19.962,7.847c-3.848,-0 -7.616,-0.498 -11.308,-1.5c-3.693,-0.999 -6.772,-2.268 -9.231,-3.808Z" style="fill:#fff;fill-rule:nonzero;"/><path d="M1367.09,143.654c8.921,-11.077 20.615,-16.616 35.078,-16.616c13.23,0 23.654,4.003 31.27,12.001c7.616,8.001 11.423,18.847 11.423,32.539c0,6.923 -1.348,13.5 -4.038,19.731c-2.694,6.231 -6.657,11.463 -11.885,15.693c-5.232,4.233 -11.618,6.732 -19.154,7.5l0.692,18.924l-18.924,-0l0.462,-36.924c4.305,0.461 7.615,0.692 9.923,0.692c5.229,-0 9.729,-1.305 13.501,-3.923c3.768,-2.614 6.577,-5.921 8.423,-9.924c1.846,-3.998 2.769,-7.922 2.769,-11.769c0,-8.77 -2.077,-15.498 -6.231,-20.193c-4.154,-4.691 -10.233,-7.039 -18.231,-7.039c-8.157,0 -15.08,3.617 -20.77,10.847l-14.308,-11.539Zm22.385,125.542c-2.924,-2.921 -4.384,-6.382 -4.384,-10.385c-0,-4.154 1.46,-7.691 4.384,-10.616c2.921,-2.92 6.462,-4.384 10.616,-4.384c3.999,-0 7.46,1.464 10.385,4.384c2.921,2.925 4.385,6.462 4.385,10.616c-0,4.003 -1.464,7.464 -4.385,10.385c-2.925,2.924 -6.386,4.385 -10.385,4.385c-4.154,-0 -7.695,-1.461 -10.616,-4.385Z" style="fill:#fff;fill-rule:nonzero;"/><path d="M1627.87,115.73l-0,19.155c-4.154,-0.307 -14.002,-0.693 -29.54,-1.154c-1.539,-0.152 -3.616,-0.231 -6.231,-0.231c-0.31,20.002 -0.461,36.617 -0.461,49.847c-0,17.849 0.151,40.772 0.461,68.772l0.231,19.154l-19.385,-0c0.461,-24.769 0.692,-52 0.692,-81.695c0,-25.23 -0.155,-43.847 -0.461,-55.847c-5.077,-0 -11.002,0.115 -17.77,0.346c-6.772,0.231 -12.08,0.501 -15.924,0.808l0,-19.155l88.388,0Z" style="fill:#fff;fill-rule:nonzero;"/><path d="M1729.87,271.273l20.309,-0c-0.772,-16.306 -1.154,-49.386 -1.154,-99.234c-0,-19.23 -4.078,-33.808 -12.231,-43.732c-8.157,-9.923 -19.079,-14.885 -32.77,-14.885c-13.696,0 -24.657,4.962 -32.886,14.885c-8.232,9.924 -12.347,24.502 -12.347,43.732l0,15.232c0,43.696 -0.31,71.695 -0.923,84.002l20.309,-0c-0.617,-11.229 -0.923,-27.383 -0.923,-48.463l53.54,0c-0,15.386 -0.311,31.541 -0.924,48.463Zm0.924,-66.694l-53.771,-0l0.231,-29.539c-0,-13.385 2.037,-23.922 6.115,-31.617c4.075,-7.691 10.962,-11.539 20.655,-11.539c17.845,0 26.77,14.388 26.77,43.156l-0,29.539Z" style="fill:#fff;fill-rule:nonzero;"/><path d="M1872.38,130.615c-9.155,-9.768 -21.656,-14.654 -37.501,-14.654l-35.078,-0c0.462,24.462 0.693,50.695 0.693,78.694c-0,27.694 -0.231,53.234 -0.693,76.618l19.616,-0l-0.461,-52.617c6.613,2.769 13.461,4.154 20.539,4.154c8.921,0 16.922,-2.192 24.001,-6.577c7.074,-4.385 12.613,-10.536 16.615,-18.462c3.999,-7.922 6.001,-16.962 6.001,-27.116c-0,-16.923 -4.58,-30.268 -13.732,-40.04Zm-13.154,65.656c-5.618,5.538 -12.195,8.308 -19.731,8.308c-3.848,-0 -7.616,-0.498 -11.308,-1.5c-3.693,-0.999 -6.772,-2.344 -9.231,-4.039l-0,-19.154c-0,-20.153 0.076,-34.768 0.231,-43.848c5.228,-1.229 10.46,-1.846 15.692,-1.846c12.462,0 21.037,3.732 25.732,11.193c4.691,7.464 7.038,15.887 7.038,25.27c0,11.539 -2.808,20.077 -8.423,25.616Z" style="fill:#fff;fill-rule:nonzero;"/><path d="M2069.11,115.73l-0,19.155c-4.154,-0.307 -14.002,-0.693 -29.54,-1.154c-1.539,-0.152 -3.616,-0.231 -6.231,-0.231c-0.31,20.002 -0.461,36.617 -0.461,49.847c-0,17.849 0.151,40.772 0.461,68.772l0.231,19.154l-19.385,-0c0.462,-24.769 0.692,-52 0.692,-81.695c0,-25.23 -0.155,-43.847 -0.461,-55.847c-5.077,-0 -11.002,0.115 -17.77,0.346c-6.772,0.231 -12.08,0.501 -15.923,0.808l-0,-19.155l88.387,0Z" style="fill:#fff;fill-rule:nonzero;"/><path d="M2193.04,133.961c-9.231,-14.153 -23.157,-21.231 -41.77,-21.231c-19.079,0 -33.117,7.425 -42.117,22.27c-9,14.849 -13.5,34.962 -13.5,60.348c-0,23.077 4.385,42.041 13.154,56.886c8.77,14.849 22.923,22.27 42.463,22.27c18.307,-0 32.153,-6.844 41.539,-20.539c9.383,-13.692 14.078,-33.232 14.078,-58.617c-0,-26.77 -4.616,-47.23 -13.847,-61.387Zm-13.616,107.196c-6.155,10.078 -15.541,15.116 -28.154,15.116c-24.924,-0 -37.386,-20.309 -37.386,-60.925c0,-25.692 3.538,-42.845 10.616,-51.463c7.075,-8.615 15.999,-12.924 26.77,-12.924c12.768,0 22.19,5.232 28.27,15.693c6.076,10.464 9.115,26.694 9.115,48.694c0,20.463 -3.079,35.734 -9.231,45.809Z" style="fill:#fff;fill-rule:nonzero;"/><path d="M2415.97,203.194l-0,45.925c-5.539,7.078 -12.08,12.847 -19.616,17.308c-7.54,4.464 -15.772,6.692 -24.693,6.692c-37.541,0 -56.31,-25.847 -56.31,-77.54c0,-26.77 5.344,-47.154 16.039,-61.156c10.692,-13.998 25.807,-21.001 45.348,-21.001c7.074,0 13.305,1.118 18.692,3.347c5.384,2.232 11.539,5.271 18.463,9.115l-9.231,17.078c-4.771,-3.538 -9.271,-6.307 -13.501,-8.308c-4.233,-1.998 -9.04,-3 -14.423,-3c-13.079,-0 -22.771,3.847 -29.078,11.538c-6.31,7.695 -10.234,16.003 -11.77,24.924c-1.539,8.925 -2.307,18.08 -2.307,27.463c-0,16.464 1.766,29.002 5.307,37.616c3.538,8.618 8.193,14.387 13.962,17.308c5.77,2.925 12.729,4.385 20.886,4.385c4.46,-0 8.92,-1.23 13.385,-3.693c4.46,-2.459 7.997,-5.307 10.615,-8.538l0,-10.154c0,-14.46 -0.155,-24.232 -0.461,-29.309l18.693,0Z" style="fill:#fff;fill-rule:nonzero;"/><path d="M2551.43,133.961c-9.231,-14.153 -23.157,-21.231 -41.771,-21.231c-19.078,0 -33.116,7.425 -42.116,22.27c-9,14.849 -13.5,34.962 -13.5,60.348c-0,23.077 4.384,42.041 13.154,56.886c8.769,14.849 22.922,22.27 42.462,22.27c18.307,-0 32.154,-6.844 41.54,-20.539c9.383,-13.692 14.077,-33.232 14.077,-58.617c0,-26.77 -4.615,-47.23 -13.846,-61.387Zm-13.616,107.196c-6.155,10.078 -15.541,15.116 -28.155,15.116c-24.923,-0 -37.385,-20.309 -37.385,-60.925c-0,-25.692 3.537,-42.845 10.615,-51.463c7.075,-8.615 16,-12.924 26.77,-12.924c12.769,0 22.191,5.232 28.27,15.693c6.076,10.464 9.116,26.694 9.116,48.694c0,20.463 -3.079,35.734 -9.231,45.809Z" style="fill:#fff;fill-rule:nonzero;"/></g></g></svg>