<?xml version="1.0" encoding="UTF-8" standalone="no"?><!DOCTYPE svg PUBLIC "-//W3C//DTD SVG 1.1//EN" "http://www.w3.org/Graphics/SVG/1.1/DTD/svg11.dtd"><svg width="100%" height="100%" viewBox="0 0 960 211" version="1.1" xmlns="http://www.w3.org/2000/svg" xmlns:xlink="http://www.w3.org/1999/xlink" xml:space="preserve" xmlns:serif="http://www.serif.com/" style="fill-rule:evenodd;clip-rule:evenodd;stroke-linejoin:round;stroke-miterlimit:2;"><g transform="matrix(0.994242,-0.107159,0.107159,0.994242,113.029,-37.5243)"><g transform="matrix(206.797,0,0,206.797,265.677,216.566)"><path d="M0.001,0.286c0.048,0 0.091,-0.053 0.14,-0.174c0.28,-0.086 0.438,-0.22 0.438,-0.402c0,-0.175 -0.126,-0.28 -0.316,-0.28l-0.016,0.045c0.202,0 0.286,0.101 0.286,0.235c0,0.225 -0.281,0.323 -0.372,0.352c0.041,-0.112 0.083,-0.254 0.1,-0.318l-0.048,0c-0.002,0.006 -0.004,0.012 -0.005,0.018l-0.002,0c-0.012,-0.027 -0.03,-0.045 -0.054,-0.045c-0.066,0 -0.152,0.089 -0.152,0.197c0,0.056 0.026,0.09 0.062,0.09c0.028,0 0.061,-0.028 0.093,-0.066l0.002,0c-0.014,0.042 -0.031,0.093 -0.05,0.137c-0.095,0.032 -0.168,0.068 -0.168,0.142c0,0.048 0.031,0.069 0.062,0.069Zm0.067,-0.325c-0.011,-0 -0.021,-0.019 -0.021,-0.047c0,-0.081 0.059,-0.154 0.098,-0.154c0.024,0 0.042,0.042 0.043,0.07c-0.037,0.063 -0.092,0.131 -0.12,0.131Zm-0.067,0.282c-0.011,-0 -0.016,-0.01 -0.016,-0.026c0,-0.04 0.043,-0.07 0.104,-0.093c-0.031,0.059 -0.071,0.119 -0.088,0.119Z" style="fill:#bc0410;fill-rule:nonzero;"/></g><g transform="matrix(206.797,0,0,206.797,265.677,216.566)"></g><g transform="matrix(206.797,0,0,206.797,558.915,216.566)"><path d="M0.197,0.13c0.227,0 0.342,-0.202 0.342,-0.343c0,-0.176 -0.126,-0.28 -0.315,-0.28c-0.037,0 -0.202,0.014 -0.255,0.014c-0.064,0 -0.129,-0.006 -0.195,-0.033l-0.018,0.046c0.062,0.025 0.126,0.029 0.186,0.029c0.055,0 0.232,-0.015 0.267,-0.015c0.202,0 0.284,0.105 0.284,0.239c-0,0.134 -0.109,0.303 -0.296,0.303c-0.054,0 -0.094,-0.036 -0.094,-0.086c-0,-0.059 0.052,-0.17 0.052,-0.185c-0,-0.023 -0.02,-0.036 -0.04,-0.048c-0.029,-0.018 -0.05,-0.033 -0.05,-0.063l-0.046,0c-0,0.031 0.013,0.053 0.028,0.069c-0.011,0.022 -0.029,0.047 -0.043,0.068l0.029,0.022c0.016,-0.023 0.033,-0.045 0.045,-0.065c0.005,0.003 0.009,0.006 0.013,0.008l0.019,0.013c-0.015,0.04 -0.05,0.122 -0.05,0.177c-0,0.073 0.051,0.13 0.137,0.13Z" style="fill:#bc0410;fill-rule:nonzero;"/></g><g transform="matrix(206.797,0,0,206.797,558.915,216.566)"></g><g transform="matrix(206.797,0,0,206.797,849.465,216.566)"></g><text x="-133.855px" y="216.566px" style="font-family:'Portuguesa-Script', 'Portuguesa';font-size:206.797px;fill:#bc0410;">Waitin<tspan x="395.752px " y="216.566px "> </tspan>fo<tspan x="680.718px " y="216.566px ">.</tspan>..</text></g></svg>