<?xml version="1.0" encoding="UTF-8" standalone="no"?><!DOCTYPE svg PUBLIC "-//W3C//DTD SVG 1.1//EN" "http://www.w3.org/Graphics/SVG/1.1/DTD/svg11.dtd"><svg width="100%" height="100%" viewBox="0 0 365 214" version="1.1" xmlns="http://www.w3.org/2000/svg" xmlns:xlink="http://www.w3.org/1999/xlink" xml:space="preserve" xmlns:serif="http://www.serif.com/" style="fill-rule:evenodd;clip-rule:evenodd;stroke-linejoin:round;stroke-miterlimit:2;"><g transform="matrix(0.981841,-0.189704,0.189704,0.981841,243.024,-1083.42)"><g transform="matrix(175.492,0,0,175.492,-196.673,1180.61)"><path d="M0.169,0.087c0.227,0 0.342,-0.201 0.342,-0.343c0,-0.175 -0.126,-0.28 -0.315,-0.28c-0.037,0 -0.202,0.015 -0.255,0.015c-0.064,0 -0.129,-0.007 -0.195,-0.033l-0.018,0.046c0.062,0.024 0.126,0.029 0.186,0.029c0.054,-0 0.232,-0.016 0.267,-0.016c0.202,0 0.284,0.106 0.284,0.239c0,0.135 -0.109,0.303 -0.296,0.303c-0.07,0 -0.128,-0.043 -0.128,-0.142c0.004,0.001 0.009,0.001 0.013,0.001c0.073,0 0.156,-0.064 0.156,-0.141c-0,-0.027 -0.017,-0.048 -0.055,-0.048c-0.072,0 -0.159,0.098 -0.159,0.195c-0,0.111 0.078,0.175 0.173,0.175Zm-0.12,-0.224c0.021,-0.061 0.082,-0.108 0.106,-0.108c0.006,0 0.011,0.007 0.011,0.016c-0,0.048 -0.063,0.098 -0.117,0.092Z" style="fill:#bc0410;fill-rule:nonzero;"/></g><g transform="matrix(175.492,0,0,175.492,-196.673,1180.61)"></g><g transform="matrix(175.492,0,0,175.492,-98.2222,1180.61)"></g><text x="-461.315px" y="1180.61px" style="font-family:'Portuguesa-Script', 'Portuguesa';font-size:175.492px;fill:#bc0410;">Recip</text></g></svg>