<?xml version="1.0" encoding="UTF-8" standalone="no"?><!DOCTYPE svg PUBLIC "-//W3C//DTD SVG 1.1//EN" "http://www.w3.org/Graphics/SVG/1.1/DTD/svg11.dtd"><svg width="100%" height="100%" viewBox="0 0 906 894" version="1.1" xmlns="http://www.w3.org/2000/svg" xmlns:xlink="http://www.w3.org/1999/xlink" xml:space="preserve" xmlns:serif="http://www.serif.com/" style="fill-rule:evenodd;clip-rule:evenodd;stroke-linejoin:round;stroke-miterlimit:2;"><path id="ADD-SCORE" serif:id="ADD SCORE" d="M444.451,0.539c249.788,-4.784 456.414,191.351 461.132,437.719c4.718,246.367 -194.247,450.27 -444.034,455.053c-249.788,4.784 -456.414,-191.351 -461.132,-437.719c-4.718,-246.367 194.247,-450.27 444.034,-455.053Zm128.061,824.394c3.046,4.711 14.29,2.641 39.085,-7.373c39.459,-15.861 68.951,-33.12 99.639,-58.087c49.994,-40.971 74.175,-68.993 103.828,-119.91c13.003,-22.508 15.278,-29.971 9.055,-32.237c-5.412,-2.016 -8.047,0.684 -16.357,15.683c-29.608,53.3 -63.782,92.643 -114.348,131.771c-28.327,22.006 -65.288,42.059 -98.92,53.567c-18.146,6.443 -25.301,11.615 -21.982,16.586Zm-276.619,19.872c2.539,6.311 13.779,3.976 13.647,-2.911c-0.112,-5.828 -8.493,-8.582 -12.709,-4.262c-1.581,1.62 -2.058,4.809 -0.938,7.173Zm40.271,-15.611c16.236,6.049 18.658,6.268 22.332,1.692c4.2,-5.115 0.369,-8.751 -14.514,-14.296c-30.577,-11.339 -83.988,-36.551 -100.857,-47.622c-48.44,-32.197 -99.186,-86.608 -129.47,-138.762c-7.226,-12.581 -11.62,-17.531 -15.38,-17.459c-8.863,0.169 -5.69,11.503 9.832,36.38c25.5,40.851 78.445,97.87 115.498,124.719c16.343,11.612 80.355,43.245 112.559,55.348Zm153.684,14.282c0.851,2.368 4.11,4.161 6.795,4.109c6.178,-0.118 7.024,-12.059 1.074,-14.065c-5.143,-2.021 -10.124,4.434 -7.869,9.956Zm57.2,-15.405c0.077,3.973 1.982,5.261 6.816,5.169c4.834,-0.093 6.689,-1.453 6.613,-5.427c-0.076,-3.973 -1.981,-5.262 -6.816,-5.169c-4.834,0.093 -6.689,1.453 -6.613,5.427Zm-280.901,6.704c1.972,4.732 11.65,5.077 13.176,0.543c1.773,-5.599 -1.267,-10.046 -6.37,-9.948c-6.177,0.118 -9.051,4.413 -6.806,9.405Zm196.332,10.55c2.767,4.186 15.111,3.42 15.025,-1.083c-0.036,-1.854 -1.977,-4.997 -4.429,-6.805c-3.279,-2.852 -4.89,-2.821 -8.316,0.689c-2.103,2.425 -3.116,5.625 -2.28,7.199Zm-79.133,-7.495c1.921,2.083 4.911,3.881 6.791,3.845c4.834,-0.092 6.856,-6.756 3.025,-10.392c-6.841,-6.494 -15.856,-0.227 -9.816,6.547Zm53.867,6.918c5.219,5.995 10.834,4.563 10.692,-2.854c-0.091,-4.768 -1.47,-6.597 -5.23,-6.525c-6.983,0.134 -9.582,4.689 -5.462,9.379Zm81.838,-5.542c2.767,4.187 13.469,1.862 13.378,-2.906c-0.091,-4.768 -8.995,-6.717 -12.684,-2.937c-1.581,1.62 -1.804,4.01 -0.694,5.843Zm-82.527,39.74c16.698,2.065 72.804,-0.335 96.372,-4.231c34.281,-5.691 52.98,-11.349 96.422,-29.671c46.645,-19.442 54.621,-23.835 54.499,-30.192c-0.162,-8.477 -5.544,-8.904 -21.247,-1.183c-35.411,16.842 -91.431,37.789 -116.849,43.311c-50.562,11.303 -145.449,8.88 -198.11,-5.216c-12.694,-3.467 -25.104,-6.144 -26.984,-6.108c-5.371,0.103 -7.124,6.761 -3.268,11.722c4.409,5.746 48.384,15.238 84.18,18.528c16.413,1.275 32.026,2.831 34.985,3.04Zm-27.015,-35.787c0.842,1.839 3.826,3.372 6.512,3.32c6.446,-0.123 6.79,-10.199 0.567,-12.465c-4.869,-1.762 -9.329,3.888 -7.079,9.145Zm-311.052,-487.458c1.698,4.472 4.12,4.691 9.431,1.409c4.51,-3.001 1.672,-10.897 -3.7,-10.794c-5.103,0.098 -7.702,4.653 -5.731,9.385Zm-48.714,-60.545c5.204,5.2 9.937,-0.191 19.98,-22.907c18.283,-41.424 56.267,-92.235 91.672,-123.387c22.195,-19.505 24.81,-23.265 19.063,-28.72c-5.752,-5.719 -16.616,2.174 -48.221,35.373c-33.454,34.824 -54.909,64.914 -71.716,99.155c-12.141,25.407 -15.151,36.594 -10.778,40.486Zm735.901,-111.611c1.976,4.997 8.153,4.879 12.354,-0.236c3.937,-4.845 1.165,-9.297 -5.549,-9.169c-5.909,0.114 -9.055,4.149 -6.805,9.405Zm-19.164,79.6c3.005,2.592 7.526,0.121 8.24,-4.663c0.476,-3.189 -0.892,-4.487 -4.652,-4.415c-5.371,0.103 -7.424,5.177 -3.588,9.078Zm48.388,-40.675c4.399,5.215 6.547,5.174 11.012,-0.211c2.883,-3.765 2.594,-4.82 -1.764,-7.916c-4.358,-3.097 -5.701,-3.071 -9.131,0.175c-3.162,3.24 -3.132,4.829 -0.117,7.952Zm-14.625,-20.125c0.847,2.104 4.095,3.367 7.307,2.775c7.232,-1.198 7.581,-11.01 0.304,-12.195c-5.66,-0.952 -9.866,3.899 -7.611,9.42Zm-102.427,-17.383c3.278,2.853 7.52,-0.144 7.418,-5.441c-0.051,-2.649 -2.25,-5.257 -4.677,-5.741c-4.85,-0.702 -6.846,7.286 -2.741,11.182Zm-18.319,-16.608c5.163,3.081 11.28,-0.216 10.109,-5.229c-0.583,-2.373 -3.041,-4.446 -5.737,-4.925c-5.66,-0.951 -9.263,7.333 -4.372,10.154Zm-565.889,136.708c1.981,5.262 8.69,4.869 10.738,-0.471c1.783,-5.069 -0.442,-9.001 -5.276,-8.908c-4.834,0.092 -7.434,4.647 -5.462,9.379Zm596.765,-109.74c1.12,2.363 3.035,4.181 4.647,4.151c4.297,-0.083 6.293,-8.071 2.736,-11.448c-4.105,-3.896 -9.638,1.775 -7.383,7.297Zm-679.312,148.42c2.538,6.311 13.778,3.976 13.646,-2.911c-0.112,-5.828 -8.493,-8.583 -12.709,-4.262c-1.581,1.62 -2.057,4.809 -0.937,7.173Zm72.605,-10.665c2.488,3.662 9.983,2.193 11.513,-2.076c1.257,-4.529 -7.13,-7.548 -10.819,-3.767c-1.581,1.62 -1.804,4.009 -0.694,5.843Zm-77.794,34.348c1.12,2.364 4.378,4.157 7.333,4.1c7.788,-0.149 10.053,-8.142 3.79,-12.527c-4.353,-2.832 -5.696,-2.806 -8.858,0.434c-2.108,2.161 -3.111,5.89 -2.265,7.993Zm13.306,-48.748c3.051,4.977 13.185,1.073 13.874,-5.035c0.71,-5.049 -0.385,-6.088 -5.756,-5.985c-6.715,0.129 -11.164,6.309 -8.118,11.02Zm712.961,-74.867c2.488,3.663 9.983,2.194 11.513,-2.075c1.257,-4.529 -7.13,-7.548 -10.819,-3.768c-1.581,1.62 -1.804,4.01 -0.694,5.843Zm-11.615,-17.267c1.12,2.364 3.036,4.182 4.647,4.151c4.029,-0.077 6.568,-7.81 3.557,-10.668c-3.831,-3.636 -10.175,1.785 -8.204,6.517Zm32.945,50.778c-0.71,5.048 0.116,6.092 4.13,5.221c5.888,-1.173 6.496,-11.519 0.587,-11.406c-2.148,0.041 -4.241,2.996 -4.717,6.185Zm-643.342,6.49c3.106,7.891 10.54,3.243 18.582,-11.75c14.259,-27.037 33.905,-53.383 57.361,-77.151c25.56,-26.194 48.879,-43.07 86.92,-62.878c26.604,-13.759 32.411,-19.17 24.298,-21.93c-11.63,-4.017 -74.338,32.428 -107.879,62.749c-12.415,11.103 -29.527,29.45 -38.177,40.745c-19.666,25.286 -43.076,65.483 -41.105,70.215Zm711.757,-11.51c3.283,3.117 10.21,0.069 10.92,-4.979c0.967,-5.584 -3.948,-9.729 -9.547,-7.502c-3.735,1.396 -4.657,9.364 -1.373,12.481Zm-13.936,-26.233c3.283,3.117 10.21,0.07 10.92,-4.979c0.968,-5.583 -3.948,-9.729 -9.547,-7.501c-3.735,1.396 -4.657,9.363 -1.373,12.48Zm-735.505,132.272c0.081,4.239 1.449,5.537 6.268,4.65c3.213,-0.591 5.858,-2.762 5.817,-4.881c-0.04,-2.119 -2.766,-4.187 -5.999,-4.655c-4.85,-0.702 -6.167,0.648 -6.086,4.886Zm635.473,-164.805c3.279,2.852 7.52,-0.144 7.419,-5.442c-0.051,-2.649 -2.25,-5.257 -4.677,-5.74c-4.85,-0.702 -6.846,7.286 -2.742,11.182Zm-151.153,-134.636c2.255,5.522 10.819,3.768 11.777,-2.346c0.973,-5.318 -6.887,-8.877 -10.839,-4.827c-1.581,1.62 -2.058,4.809 -0.938,7.173Zm172.025,60.039c0.106,5.562 1.474,6.861 7.114,6.753c5.64,-0.108 6.694,-1.188 5.797,-5.941c-0.613,-3.963 -3.076,-6.301 -6.846,-6.758c-5.118,-0.697 -6.172,0.383 -6.065,5.946Zm-389.264,-39.979c2.255,5.521 10.819,3.767 11.777,-2.346c0.973,-5.318 -6.887,-8.878 -10.839,-4.827c-1.581,1.62 -2.058,4.809 -0.938,7.173Zm-192.083,70.986c1.105,1.569 4.353,2.832 7.307,2.775c5.64,-0.108 7.079,-9.145 1.915,-12.226c-3.8,-2.047 -11.442,5.784 -9.222,9.451Zm83.661,-64.67c0.061,3.179 1.977,4.997 5.2,4.935c7.251,-0.139 9.572,-5.218 4.646,-9.893c-4.925,-4.676 -9.983,-2.194 -9.846,4.958Zm-60.488,40.112c-0.705,5.313 0.116,6.093 5.473,5.195c4.018,-0.607 6.126,-2.767 6.06,-6.211c-0.152,-7.947 -10.611,-6.951 -11.533,1.016Zm82.592,-50.34c2.534,6.046 12.73,5.321 12.608,-1.036c-0.112,-5.828 -7.971,-9.388 -11.66,-5.607c-1.318,1.35 -1.794,4.539 -0.948,6.643Zm387.302,21.732c1.971,4.732 8.969,5.393 11.574,1.103c0.775,-1.605 -0.086,-4.503 -2.007,-6.586c-4.92,-4.411 -11.827,-0.304 -9.567,5.483Zm-451.536,-22.887c1.692,4.208 11.381,5.082 13.459,1.332c2.604,-4.289 -1.551,-10.835 -6.654,-10.737c-6.177,0.118 -9.05,4.413 -6.805,9.405Zm450.077,58.954c2.488,3.662 9.983,2.194 11.513,-2.076c1.257,-4.529 -7.13,-7.548 -10.819,-3.767c-1.581,1.62 -1.804,4.009 -0.694,5.843Zm108.478,10.642c1.698,4.472 10.551,3.773 12.334,-1.296c2.042,-5.604 -0.441,-9.001 -6.618,-8.883c-5.371,0.103 -7.971,4.657 -5.716,10.179Zm-88.442,-30.635c4.12,4.691 6.537,4.644 10.465,-0.731c2.893,-3.235 2.862,-4.824 -0.69,-7.936c-3.831,-3.637 -4.637,-3.621 -8.589,0.429c-3.426,3.511 -3.659,5.37 -1.186,8.238Zm-55.458,-33.917c3.279,2.852 7.52,-0.144 8.214,-5.987c0.72,-4.519 -0.649,-5.818 -4.677,-5.741c-5.64,0.108 -7.915,7.572 -3.537,11.728Zm0.173,37.095c20.381,12.065 27.126,13.526 26.964,5.049c-0.193,-10.066 -70.139,-42.911 -113.592,-53.208c-24.562,-5.89 -58.478,-9.215 -61.64,-5.974c-5.797,5.94 0.73,10.055 17.685,11.585c37.413,3.524 97.432,23.044 130.583,42.548Zm-412.456,-2.435c4.12,4.69 10.034,4.842 11.564,0.573c1.773,-5.599 -1.267,-10.045 -6.37,-9.948c-6.714,0.129 -9.309,4.948 -5.194,9.375Zm514.361,-7.466c9.552,7.767 16.282,8.433 18.846,2.024c5.361,-14.677 -89.441,-68.775 -156.189,-88.961c-42.156,-12.707 -66.708,-18.067 -97.665,-21.184c-26.376,-2.41 -68.258,-0.813 -87.519,3.531c-10.165,2.315 -13.55,7.944 -8.077,13.139c3.01,2.858 7.85,3.03 25.261,0.312c62.157,-9.141 147.37,7.247 223.549,42.887c28.464,13.234 64.605,34.537 81.794,48.252Zm-339.602,-28.21c4.865,1.497 7.241,-0.669 7.129,-6.497c-0.06,-3.178 -1.976,-4.997 -5.467,-4.93c-5.909,0.113 -7.611,9.421 -1.662,11.427Zm64.31,-8.917c1.971,4.732 8.969,5.393 11.574,1.104c2.599,-4.555 -6.411,-12.067 -10.1,-8.287c-1.844,1.891 -2.32,5.08 -1.474,7.183Zm147.988,-2.569c2.255,5.522 10.819,3.768 11.777,-2.345c0.973,-5.319 -6.887,-8.878 -10.839,-4.827c-1.581,1.62 -2.058,4.809 -0.938,7.172Zm-265.855,20.726c2.533,6.046 10.038,5.108 9.922,-0.985c-0.056,-2.914 -1.186,-5.807 -2.276,-6.581c-3.805,-2.312 -9.339,3.359 -7.646,7.566Zm95.854,-17.205c4.12,4.691 7.612,4.624 9.659,-0.715c2.047,-5.339 -4.749,-9.449 -9.243,-5.653c-2.646,2.171 -2.615,3.76 -0.416,6.368Zm-241.735,17.614c0.112,5.828 1.207,6.867 6.294,5.974c3.75,-0.602 5.858,-2.762 5.792,-6.206c-0.066,-3.443 -2.255,-5.521 -6.025,-5.979c-5.118,-0.697 -6.172,0.383 -6.061,6.211Zm109.663,-25.684c0.158,8.211 4.186,8.134 28.464,-0.811c39.221,-14.265 54.758,-16.683 114.65,-17.83c56.932,-1.355 63.889,-2.813 53.526,-10.83c-3.547,-2.846 -16.454,-3.394 -59.962,-2.561c-59.355,1.137 -70.067,2.932 -111.974,17.249c-22.155,7.579 -24.81,9.22 -24.704,14.783Zm110.282,6.632c0.076,3.974 1.718,5.532 5.747,5.455c3.76,-0.072 5.077,-1.422 4.479,-4.591c-1.474,-6.861 -10.352,-7.486 -10.226,-0.864Zm235.169,18.286c2.255,5.522 10.819,3.768 11.776,-2.345c0.973,-5.319 -6.887,-8.878 -10.839,-4.828c-1.581,1.62 -2.057,4.809 -0.937,7.173Zm-405.671,15.189c4.865,1.496 7.242,-0.669 7.13,-6.497c-0.061,-3.178 -1.976,-4.997 -5.468,-4.93c-5.908,0.113 -7.611,9.421 -1.662,11.427Zm270.441,-61.888c3.319,4.971 12.42,3.207 12.314,-2.356c-0.056,-2.913 -1.46,-6.066 -3.092,-7.095c-3.8,-2.047 -11.442,5.784 -9.222,9.451Zm-206.547,-10.884c0.851,2.369 3.846,4.431 6.532,4.38c6.714,-0.129 8.979,-8.122 3.78,-13.057c-3.563,-3.642 -4.637,-3.621 -8.058,0.154c-2.371,2.431 -3.374,6.16 -2.254,8.523Zm-67.335,33.354c2.25,5.256 11.655,5.341 13.438,0.272c0.766,-2.134 -0.38,-5.822 -2.316,-8.7c-3.577,-4.436 -4.114,-4.426 -8.33,-0.106c-2.372,2.431 -3.639,6.43 -2.792,8.534Zm92.489,-38.605c4.399,5.215 7.348,4.894 10.196,-0.726c3.364,-6.689 0.856,-11.411 -5.321,-11.292c-6.715,0.128 -9.274,6.802 -4.875,12.018Zm-70.928,28.122c2.544,6.576 11.078,3.233 10.931,-4.449c-0.082,-4.238 -1.744,-6.857 -4.977,-7.325c-5.123,-0.961 -8.493,5.463 -5.954,11.774Zm302.56,1.891c4.667,5.21 9.202,3.533 10.144,-3.375c0.948,-6.642 -6.096,-9.688 -10.292,-4.307c-2.63,2.965 -2.599,4.554 0.148,7.682Zm-279.676,-13.459c1.926,2.348 4.11,4.161 5.184,4.141c2.955,-0.057 8.209,-6.252 8.144,-9.696c-0.097,-5.033 -8.727,-6.723 -12.943,-2.402c-3.43,3.246 -3.4,4.835 -0.385,7.957Zm257.272,8.058c2.742,2.862 5.144,2.021 8.818,-2.554c2.893,-3.235 2.863,-4.825 -0.695,-8.201c-2.457,-2.073 -5.701,-3.071 -7.297,-2.246c-3.182,2.181 -3.831,10.408 -0.826,13.001Zm-185.969,-30.623c3.558,3.377 10.211,0.07 10.11,-5.228c-0.066,-3.444 -2.255,-5.522 -6.026,-5.98c-4.581,-0.707 -6.167,0.649 -6.096,4.357c0.051,2.649 0.918,5.812 2.012,6.851Zm23.564,-4.161c0.831,1.309 4.079,2.572 7.033,2.515c4.297,-0.082 5.341,-1.692 4.429,-7.239c-1.247,-8.986 -9.081,-11.221 -11.62,-3.488c-0.744,3.195 -0.679,6.638 0.158,8.212Zm-17.067,764.299c3.563,3.642 8.894,1.42 8.797,-3.613c-0.066,-3.444 -1.981,-5.262 -5.473,-5.195c-5.103,0.097 -7.15,5.436 -3.324,8.808Zm-163.17,-4.56c3.851,4.696 3.583,4.701 9.182,2.474c5.6,-2.227 5.422,-11.498 -0.259,-13.509c-2.163,-0.754 -6.172,0.383 -8.275,2.808c-3.425,3.51 -3.663,5.105 -0.648,8.227Zm135.315,-4.976c2.255,5.521 10.819,3.768 11.776,-2.346c0.973,-5.318 -6.887,-8.877 -10.839,-4.827c-1.581,1.62 -2.057,4.809 -0.937,7.173Zm377.156,11.061c4.105,3.897 12.897,0.018 13.591,-5.825c0.704,-5.313 -0.385,-6.087 -7.368,-5.953c-6.177,0.118 -8.301,1.484 -8.235,4.927c0.051,2.649 0.918,5.812 2.012,6.851Zm25.474,-16.652c10.287,4.043 16.585,-3.762 8.928,-10.771c-3.557,-3.376 -5.174,-3.61 -8.341,-0.635c-5.026,4.071 -5.457,9.644 -0.587,11.406Zm-303.856,28.608c9.694,1.14 34.955,1.451 56.43,0.51c33.288,-1.433 44.543,-2.973 77.694,-11.558c37.959,-10.001 70.497,-22.549 95.474,-37.072c22.311,-13.412 45.611,-31.348 45.535,-35.321c-0.158,-8.212 -8.448,-6.198 -27.273,6.882c-70.259,49.044 -164.101,73.1 -247.04,63.294c-16.692,-1.8 -21.257,-1.713 -22.813,1.232c-3.648,5.9 3.406,9.475 21.993,12.033Zm-210.424,-2.86c3.289,3.382 11.853,1.628 13.383,-2.641c1.779,-5.334 -6.137,-11.807 -11.736,-9.58c-3.735,1.397 -4.926,9.369 -1.647,12.221Zm27.977,15.894c1.921,2.083 4.374,3.891 5.448,3.871c4.029,-0.077 8.442,-8.112 6.755,-12.054c-0.847,-2.104 -4.105,-3.897 -7.059,-3.84c-6.715,0.129 -9.811,6.813 -5.144,12.023Zm137.641,-23.835c2.26,5.786 9.76,4.583 9.648,-1.245c-0.107,-5.563 -7.166,-9.402 -9.77,-5.113c-0.78,1.34 -0.725,4.254 0.122,6.358Zm-252.054,-72.286c13.976,14.307 21.334,19.731 25.084,19.129c2.944,-0.586 5.868,-2.232 6.374,-3.832c0.502,-1.864 -8.589,-13.615 -20.113,-26.114c-57.07,-61.975 -90.668,-132.879 -103.014,-216.38c-3.416,-24.049 -3.974,-25.099 -10.151,-24.98c-6.445,0.123 -6.704,0.658 -5.847,17.336c4.724,78.347 49.031,175.281 107.667,234.841Zm36.359,46.737c6.228,2.531 10.242,1.659 11.772,-2.61c2.047,-5.339 -5.889,-12.872 -11.22,-10.65c-5.062,2.217 -5.422,11.499 -0.552,13.26Zm582.979,-15.934c2.539,6.311 13.778,3.976 13.646,-2.911c-0.111,-5.828 -8.493,-8.582 -12.709,-4.262c-1.581,1.621 -2.057,4.81 -0.937,7.173Zm-505.651,-14.696c4.596,1.502 7.247,-0.403 7.135,-6.231c-0.091,-4.768 -6.35,-8.888 -9.248,-5.918c-2.899,2.971 -1.404,10.892 2.113,12.149Zm593.938,-103.061c4.115,4.426 6.258,4.12 11.254,-1.541c6.046,-7.005 22.732,-47.603 32.091,-77.992c10.352,-34.647 13.949,-71.285 12.452,-135.384c-1.105,-57.747 -3.842,-74.389 -18.113,-118.105c-7.409,-22.117 -12.081,-27.593 -18.957,-21.896c-3.173,2.711 -2.843,5.884 1.743,20.901c19.734,62.425 24.711,97.839 21.469,153.019c-1.201,21.488 -3.131,46.964 -4.57,56.001c-3.06,22.583 -15.196,62.299 -29.08,94.894c-8.482,20.037 -10.489,27.495 -8.289,30.103Zm-62.385,-16.825c0.076,3.974 1.718,5.532 5.746,5.455c3.76,-0.072 5.078,-1.422 4.48,-4.591c-1.475,-6.861 -10.353,-7.486 -10.226,-0.864Zm48.788,-33.793c2.255,5.522 10.819,3.768 11.776,-2.346c0.973,-5.318 -6.886,-8.877 -10.839,-4.827c-1.581,1.62 -2.057,4.809 -0.937,7.173Zm-33.549,128.104c4.662,4.945 11.888,3.482 12.841,-2.896c1.454,-8.243 -11.802,-13.024 -14.609,-5.285c-1.034,2.139 -0.157,5.832 1.768,8.181Zm-27.431,-71.553c1.971,4.732 8.969,5.393 11.574,1.103c0.775,-1.604 -0.086,-4.503 -2.007,-6.586c-4.92,-4.411 -11.827,-0.304 -9.567,5.483Zm-457.751,129.603c0.066,3.443 1.982,5.261 5.473,5.195c3.492,-0.067 5.336,-1.958 5.27,-5.401c-0.066,-3.444 -1.981,-5.262 -5.473,-5.195c-3.491,0.067 -5.336,1.957 -5.27,5.401Zm-21.663,-8.86c4.393,4.95 9.207,3.798 10.165,-2.315c0.968,-5.583 -6.887,-8.878 -10.839,-4.827c-2.108,2.16 -2.068,4.279 0.674,7.142Zm-71.857,-48.443c6.558,5.705 14.615,5.55 14.498,-0.542c-0.03,-1.59 -11.306,-15.153 -25.028,-30.26c-45.831,-50.266 -60.522,-73.834 -78.431,-125.164c-13.359,-38.168 -18.639,-61.386 -21.944,-93.652c-1.348,-14.284 -4.014,-27.218 -5.656,-28.776c-9.304,-8.832 -10.758,13.456 -3.5,55.715c10.273,59.427 30.629,112.3 58.79,151.775c11.873,16.732 50.609,61.304 61.271,70.904Zm514.584,-23.899c1.12,2.364 3.035,4.182 4.647,4.151c4.297,-0.082 6.293,-8.07 2.736,-11.447c-4.105,-3.896 -9.638,1.774 -7.383,7.296Zm-466.058,60.599c2.489,3.662 8.934,3.539 11.017,0.054c1.044,-1.61 0.177,-4.773 -1.743,-6.857c-3.021,-3.387 -3.826,-3.371 -7.252,0.139c-2.108,2.161 -2.858,5.09 -2.022,6.664Zm564.071,-91.36c1.921,2.083 4.373,3.891 5.448,3.871c4.028,-0.078 8.442,-8.112 6.754,-12.054c-0.846,-2.104 -4.105,-3.897 -7.059,-3.84c-6.714,0.128 -9.81,6.813 -5.143,12.023Zm-16.403,27.343c0.847,2.104 4.095,3.367 7.308,2.775c7.231,-1.198 7.58,-11.01 0.303,-12.195c-5.66,-0.952 -9.866,3.899 -7.611,9.42Zm-36.687,48.401c0.847,2.104 4.095,3.367 7.308,2.775c7.231,-1.198 9.171,-12.1 2.406,-14.62c-5.407,-1.752 -11.974,6.059 -9.714,11.845Zm-18.675,-77.285c1.12,2.364 3.573,4.172 5.99,4.126c4.566,-0.088 5.463,-9.38 0.841,-12.206c-4.074,-2.307 -8.802,3.348 -6.831,8.08Zm34.417,-54.717c2.488,3.662 9.983,2.194 11.513,-2.075c1.257,-4.529 -7.13,-7.549 -10.819,-3.768c-1.581,1.62 -1.804,4.009 -0.694,5.843Zm6.324,-20.526c0.051,2.649 2.235,4.463 5.189,4.406c6.446,-0.123 14.127,-19.88 20.74,-53.396c15.702,-77.943 9.173,-166.325 -16.626,-222.805c-11.499,-25.219 -16.176,-30.959 -20.919,-26.098c-3.425,3.51 -2.564,6.409 13.156,41.617c13.759,31.005 17.083,50.286 18.265,112.006c1.157,60.397 -2.537,92.001 -14.789,125.625c-2.807,7.738 -5.067,15.997 -5.016,18.645Zm-84.917,125.378c3.046,4.711 9.456,2.734 9.349,-2.829c-0.056,-2.914 -1.713,-5.267 -3.861,-5.226c-4.835,0.093 -7.708,4.388 -5.488,8.055Zm-620.668,-114.25c2.534,6.046 12.73,5.321 12.608,-1.037c-0.112,-5.827 -7.971,-9.387 -11.66,-5.606c-1.318,1.35 -1.794,4.539 -0.948,6.643Zm745.475,-32.561c1.92,2.083 4.373,3.891 5.447,3.871c3.492,-0.067 8.448,-7.847 6.512,-10.725c-0.831,-1.309 -4.079,-2.571 -6.765,-2.52c-6.715,0.129 -9.314,4.683 -5.194,9.374Zm-754.221,10.734c4.89,2.821 11.472,-4.195 8.948,-9.711c-0.851,-2.369 -3.836,-3.901 -6.243,-3.325c-5.888,1.172 -7.864,10.22 -2.705,13.036Zm661.586,104.457c3.563,3.641 8.893,1.419 8.797,-3.614c-0.066,-3.443 -1.981,-5.261 -5.473,-5.195c-5.103,0.098 -7.15,5.437 -3.324,8.809Zm-669.821,-127.619c5.143,2.022 8.604,0.366 9.308,-4.948c0.973,-5.318 -4.211,-9.459 -9.542,-7.237c-4.535,1.677 -4.363,10.684 0.234,12.185Zm21.538,-123.898c1.652,2.088 4.359,3.096 5.96,2.535c4.804,-1.681 4.915,-9.898 0.05,-11.395c-5.954,-2.271 -10.124,4.434 -6.01,8.86Zm-72.139,-7.099c1.698,4.473 2.235,4.463 8.103,2.23c6.4,-2.507 5.366,-14.412 -1.349,-14.284c-6.177,0.119 -9.288,6.008 -6.754,12.054Zm72.164,-19.666c2.26,5.787 8.118,3.024 9.061,-3.883c0.466,-3.719 -0.649,-5.818 -3.335,-5.766c-5.103,0.097 -7.702,4.652 -5.726,9.649Zm-69.469,-7.944c0.836,1.574 4.343,2.301 7.287,1.715c8.037,-1.214 7.844,-11.28 0.035,-12.19c-5.924,-0.682 -10.367,5.763 -7.322,10.475Zm823.597,104.534c2.255,5.521 10.819,3.767 11.776,-2.346c0.973,-5.318 -6.887,-8.878 -10.839,-4.827c-1.581,1.62 -2.057,4.809 -0.937,7.173Zm-795.081,-32.473c2.544,6.576 10.272,3.249 10.13,-4.168c-0.077,-3.974 -1.744,-6.857 -4.44,-7.335c-5.118,-0.697 -8.219,5.722 -5.69,11.503Zm792.801,53.716c2.544,6.576 9.755,4.318 9.618,-2.834c-0.077,-3.974 -1.739,-6.592 -3.887,-6.551c-5.103,0.098 -7.703,4.653 -5.731,9.385Zm-788.772,-25.704c0.061,3.179 1.976,4.997 5.199,4.936c6.446,-0.124 9.005,-6.798 4.095,-10.678c-4.911,-3.881 -9.426,-1.145 -9.294,5.742Zm794.081,-19.712c3.279,2.853 10.216,0.335 10.135,-3.904c-0.041,-2.119 -2.767,-4.186 -6,-4.655c-5.924,-0.681 -8.513,4.403 -4.135,8.559Zm1.378,-26.26c2.255,5.521 10.819,3.767 11.777,-2.346c0.973,-5.318 -6.887,-8.878 -10.84,-4.827c-1.581,1.62 -2.057,4.809 -0.937,7.173Zm-2.808,-20.351c0.837,1.574 3.821,3.107 6.776,3.05c6.714,-0.128 6.84,-7.55 0.556,-41.084c-10.8,-58.886 -38.641,-123.806 -76.496,-178.465c-17.407,-25.106 -69.668,-74.453 -78.8,-74.278c-4.028,0.077 -6.683,1.718 -6.643,3.837c0.041,2.119 15.127,18.259 33.735,35.923c27.643,26.499 36.709,36.925 51.683,61.283c31.597,50.538 56.737,114.715 64.684,164.911c2.108,11.884 3.933,22.979 4.505,24.823Zm-7.994,115.69c3.284,3.117 10.216,0.334 10.926,-4.714c0.744,-3.194 -0.892,-4.488 -5.995,-4.39c-6.714,0.128 -9.309,4.948 -4.931,9.104Zm-776.837,-19.837c3.283,3.117 8.361,1.695 9.891,-2.575c2.042,-5.604 -0.441,-9.001 -6.887,-8.877c-5.102,0.097 -7.104,7.82 -3.004,11.452Zm-43.576,-72.834c0.111,5.828 1.206,6.867 6.293,5.975c3.75,-0.602 5.858,-2.762 5.792,-6.206c-0.066,-3.444 -2.255,-5.522 -6.025,-5.979c-5.118,-0.697 -6.172,0.383 -6.06,6.21Zm39.272,-11.616c1.094,1.039 3.785,1.252 6.197,0.941c3.208,-0.856 4.424,-7.504 6.41,-30.067c3.921,-47.773 17.916,-102.63 35.236,-138.205c8.791,-17.923 29.937,-50.127 45.417,-69.503c12.866,-15.616 14.062,-23.324 4.393,-23.139c-5.908,0.114 -30.049,30.255 -48.281,60.283c-30.986,51.472 -52.617,128.469 -51.547,184.362c0.142,7.417 1.08,14.289 2.175,15.328Z" style="fill:#ffe4c3;"/></svg>