<?xml version="1.0" encoding="UTF-8" standalone="no"?><!DOCTYPE svg PUBLIC "-//W3C//DTD SVG 1.1//EN" "http://www.w3.org/Graphics/SVG/1.1/DTD/svg11.dtd"><svg width="100%" height="100%" viewBox="0 0 2030 1080" version="1.1" xmlns="http://www.w3.org/2000/svg" xmlns:xlink="http://www.w3.org/1999/xlink" xml:space="preserve" xmlns:serif="http://www.serif.com/" style="fill-rule:evenodd;clip-rule:evenodd;stroke-linejoin:round;stroke-miterlimit:2;"><g id="Win-with-friends" serif:id="Win with friends"><g><path d="M569.465,772.574c68.928,-14.687 115.968,-128.022 146.944,-247.484c0.965,37.125 4.068,72.059 10.084,100.294c7.963,37.371 28.818,106.721 91.102,93.45c83.046,-17.696 111.504,-165.271 144.673,-335.553c28.281,-148.405 60.974,-316.85 130.746,-343.872l-13.776,-36.132c-101.807,35.584 -140.057,292.029 -155.034,372.488c-27.26,136.901 -57.447,292.658 -114.749,304.868c-24.083,5.131 -37.628,-25.841 -44.883,-59.89c-19.288,-90.52 -4.293,-289.052 8.793,-374.316l-39.862,8.494l-0.654,1.007c-18.627,108.149 -77.682,458.449 -171.524,478.445c-12.457,2.654 -20.611,-23.39 -24.15,-39.999c-14.864,-69.758 -2.171,-226.128 11.351,-329.717c44.384,-72.833 67.489,-155.891 60.057,-190.771c-8.847,-41.523 -33.639,-39.713 -41.113,-38.12c-23.253,4.955 -46.332,116.657 -60.413,242.068c-37.712,47.104 -87.091,80.198 -128.805,100.372l17.098,35.424c41.061,-19.167 77.751,-54.766 106.968,-88.773c-10.391,114.207 -13.607,229.49 -2.99,279.318c9.555,44.845 32.766,76.362 70.137,68.399Z" style="fill:#bc0410;fill-rule:nonzero;"/><path d="M1059.27,296.631l39.032,-8.317l5.638,-55.028l-38.201,8.14l-6.469,55.205Zm28.023,282.259c34.879,-7.432 87.513,-86.364 122.122,-168.401c4.044,-9.543 7.257,-18.909 10.647,-27.445l-25.131,-12.008l-4.805,1.892c-2.737,7.528 -6.127,16.064 -9.694,23.769c-29.082,71.31 -70.076,135.607 -90.007,139.854c-20.761,4.424 -4.121,-129.347 5.806,-200.915l-39.862,8.494c-5.937,57.696 -19.582,164.783 -12.681,197.171c6.548,30.727 20.352,42.544 43.605,37.589Z" style="fill:#bc0410;fill-rule:nonzero;"/><path d="M1433.32,642.329c187.684,-39.992 248.449,-227.441 223.321,-345.366c-30.967,-145.33 -154.185,-210.232 -311.972,-176.611c-30.727,6.548 -164.268,48.025 -209.113,57.581c-52.319,11.148 -107.537,16.837 -166.948,6.924l-6.808,41.386c55.735,8.96 109.769,1.787 159.597,-8.83c44.844,-9.556 189.004,-54.164 218.901,-60.534c166.922,-35.568 254.43,36.942 278.142,148.224c23.889,112.112 -36.902,270.917 -192.198,304.008c-37.371,7.963 -70.969,-15.264 -78.932,-52.634c-16.103,-75.572 17.147,-212.882 9.715,-247.761c-4.424,-20.762 -15.86,-29.611 -32.469,-26.072c-26.575,5.663 -71.803,90.83 -104.03,163.678l-2.491,0.531c6.468,-55.205 15.143,-120.429 17.662,-145.275l-38.201,8.14c-4.072,33.858 -15.497,118.768 -30.177,249.516l39.862,-8.493c14.936,-43.987 102.493,-219.781 116.611,-222.79c6.644,-1.415 -29.234,152.081 -10.123,241.771c12.918,60.623 69.824,83.224 119.651,72.607Z" style="fill:#bc0410;fill-rule:nonzero;"/></g><g><path d="M199.124,862.59l-32.321,0c-2.695,26.936 -9.431,73.801 -20.2,140.595l-31.109,-125.647l-31.108,0l-30.705,125.647c-9.967,-58.985 -16.836,-105.85 -20.604,-140.595l-32.321,0c5.385,29.897 15.352,97.101 29.897,201.6l39.997,0l29.492,-119.586l29.089,119.586l40.401,0c14.272,-100.194 24.101,-167.392 29.492,-201.6Z" style="fill:#323843;fill-rule:nonzero;"/><path d="M255.685,862.59l33.533,0c-0.808,30.705 -1.212,68.012 -1.212,111.91l0.404,89.69l-32.725,0c0.537,-20.2 0.808,-53.462 0.808,-99.79c0,-46.593 -0.271,-80.53 -0.808,-101.81Z" style="fill:#323843;fill-rule:nonzero;"/><path d="M345.779,896.123l-0,-33.533l111.506,0l0,33.129c-7.815,-0.808 -21.008,-1.212 -39.593,-1.212c-0.543,32.32 -0.808,58.044 -0.808,77.165c0,24.512 0.265,55.349 0.808,92.518l-33.128,0c0.536,-20.2 0.808,-51.037 0.808,-92.518c-0,-33.936 -0.139,-59.654 -0.404,-77.165c-15.353,-0 -28.42,0.543 -39.189,1.616Z" style="fill:#323843;fill-rule:nonzero;"/><path d="M645.957,963.188c-0,-39.321 0.404,-72.854 1.212,-100.598l-33.533,0c0.537,19.127 0.808,49.561 0.808,91.306l-69.489,-0l0.404,-31.109c-0,-16.968 0.265,-37.03 0.808,-60.197l-32.321,0c0.537,42.56 0.808,76.629 0.808,102.214c0,26.128 -0.271,59.389 -0.808,99.79l31.917,0l-0.808,-78.781l69.489,-0c0,20.2 -0.271,46.46 -0.808,78.781l33.129,0c-0.543,-37.705 -0.808,-71.509 -0.808,-101.406Z" style="fill:#323843;fill-rule:nonzero;"/><path d="M881.493,894.507c32.858,-0 54.807,0.404 65.854,1.212l-0,-33.129l-98.174,0c0.536,35.016 0.808,72.052 0.808,111.102c-0,30.168 -0.272,60.601 -0.808,91.306l31.916,-0.404c-0.271,-15.617 -0.404,-44.441 -0.404,-86.458c5.922,-0.265 15.618,-0.404 29.089,-0.404c12.657,0 21.141,0.139 25.453,0.404l-0,-28.684c-7.544,0.543 -17.24,0.808 -29.089,0.808l-25.049,-0.404c0,-25.585 0.133,-44.037 0.404,-55.349Z" style="fill:#323843;fill-rule:nonzero;"/><path d="M1130.56,1036.52c-11.179,-11.982 -21.21,-23.9 -30.098,-35.755c11.041,-6.193 19.796,-15.15 26.26,-26.867c6.464,-11.716 9.696,-25.25 9.696,-40.602c0,-22.353 -5.795,-39.726 -17.372,-52.118c-11.584,-12.385 -28.015,-18.584 -49.289,-18.584l-61.813,0c0.537,21.28 0.808,55.217 0.808,101.81c-0,46.328 -0.271,79.59 -0.808,99.79l33.129,0l-0.808,-61.005c6.729,3.232 15.484,5.119 26.26,5.656c1.616,1.887 3.636,4.514 6.06,7.878c2.424,3.371 4.305,5.997 5.656,7.878c11.849,15.895 22.019,28.281 30.503,37.169c8.484,8.888 16.627,13.332 24.442,13.332c11.041,0 18.585,-5.113 22.625,-15.352c-5.656,-3.497 -14.077,-11.243 -25.251,-23.23Zm-90.295,-65.248l0.404,-73.529c8.616,-2.153 17.504,-3.232 26.664,-3.232c12.657,-0 22.019,3.099 28.079,9.292c6.06,6.199 9.09,16.028 9.09,29.493c-0,11.855 -3.302,22.359 -9.898,31.512c-6.603,9.16 -15.422,13.736 -26.463,13.736c-12.12,0 -21.412,-2.424 -27.876,-7.272Z" style="fill:#323843;fill-rule:nonzero;"/><path d="M1208.34,862.59l33.533,0c-0.808,30.705 -1.212,68.012 -1.212,111.91l0.404,89.69l-32.725,0c0.536,-20.2 0.808,-53.462 0.808,-99.79c-0,-46.593 -0.272,-80.53 -0.808,-101.81Z" style="fill:#323843;fill-rule:nonzero;"/><path d="M1392.16,893.295c9.697,-0 19.393,0.271 29.089,0.808l0,-31.513l-98.578,0c0.537,15.895 0.808,49.024 0.808,99.386c0,51.177 -0.271,85.246 -0.808,102.214l98.578,0l0,-31.917c-4.583,0.272 -15.087,0.404 -31.513,0.404l-34.744,0l-0,-56.965c5.656,-0.265 15.213,-0.404 28.684,-0.404c12.929,0 21.545,0.139 25.857,0.404l-0,-28.684c-3.232,0.271 -11.312,0.404 -24.241,0.404l-30.3,-0c-0,-24.506 0.132,-42.282 0.404,-53.329c12.385,-0.537 24.644,-0.808 36.764,-0.808Z" style="fill:#323843;fill-rule:nonzero;"/><path d="M1623.66,974.904c0,-44.169 0.404,-81.609 1.212,-112.314l-33.533,0c1.074,56.561 1.616,101.949 1.616,136.151l-2.02,-0l-67.873,-136.151l-33.129,0c0.537,42.56 0.808,76.497 0.808,101.81c0,26.128 -0.271,59.389 -0.808,99.79l32.725,0c0,-7.001 -0.271,-19.392 -0.808,-37.169c-0.543,-34.473 -0.808,-62.078 -0.808,-82.821l0,-15.757l1.616,0l68.681,135.747l32.725,0l-0.404,-89.286Z" style="fill:#323843;fill-rule:nonzero;"/><path d="M1822.43,891.275c-11.855,-18.85 -35.149,-28.281 -69.893,-28.281l-46.865,0c1.073,17.511 1.616,47.812 1.616,90.902c-0,48.752 -0.543,85.65 -1.616,110.698l49.289,0c56.826,0 85.245,-33.394 85.245,-100.194c0,-29.896 -5.927,-54.27 -17.776,-73.125Zm-39.997,136.352c-7.543,3.371 -16.703,5.05 -27.472,5.05c-3.775,0 -9.16,-0.536 -16.161,-1.616c-0.271,-14.001 -0.404,-36.625 -0.404,-67.873c0,-31.241 0.133,-53.733 0.404,-67.469c6.464,-0.537 11.041,-0.808 13.737,-0.808c14.001,-0 24.979,2.159 32.926,6.464c7.941,4.311 13.667,11.451 17.171,21.412c3.497,9.968 5.252,23.837 5.252,41.613c-0,18.856 -2.361,33.268 -7.071,43.229c-4.715,9.968 -10.845,16.634 -18.382,19.998Z" style="fill:#323843;fill-rule:nonzero;"/><path d="M1996.35,1062.78c-10.1,5.252 -21.482,7.878 -34.138,7.878c-14.008,0 -26.734,-3.434 -38.179,-10.302c-11.451,-6.868 -23.231,-15.958 -35.351,-27.271l23.029,-21.816c6.464,6.736 14.342,12.998 23.634,18.786c9.292,5.795 18.648,8.687 28.079,8.687c10.232,-0 18.243,-2.424 24.038,-7.273c5.789,-4.848 8.686,-11.173 8.686,-18.988c0,-5.113 -2.626,-9.829 -7.878,-14.14c-5.252,-4.305 -13.269,-9.425 -24.038,-15.353l-10.1,-5.656l-11.717,-6.868c-10.239,-5.921 -18.18,-10.971 -23.836,-15.15c-5.656,-4.173 -10.441,-9.292 -14.342,-15.352c-3.908,-6.06 -5.859,-13.263 -5.859,-21.615c0,-9.425 2.69,-18.849 8.081,-28.28c5.384,-9.425 12.656,-17.234 21.816,-23.433c9.153,-6.192 18.988,-9.292 29.493,-9.292c9.153,0 18.243,1.957 27.27,5.858c9.021,3.908 17.776,9.292 26.261,16.16c8.484,6.869 13.666,11.111 15.554,12.727l-22.625,22.624c-14.815,-16.968 -30.3,-25.452 -46.46,-25.452c-7.815,-0 -14.545,2.695 -20.201,8.08c-5.656,5.391 -8.484,12.259 -8.484,20.604c0,5.656 3.093,10.776 9.292,15.353c6.193,4.582 15.214,10.1 27.069,16.564c1.616,1.079 4.04,2.424 7.272,4.04c16.968,9.431 30.502,18.654 40.603,27.674c10.1,9.028 15.15,19.058 15.15,30.099c-0,11.047 -2.828,21.008 -8.484,29.897c-5.656,8.888 -13.534,15.958 -23.635,21.21Z" style="fill:#323843;fill-rule:nonzero;"/></g></g></svg>