<?xml version="1.0" encoding="UTF-8" standalone="no"?><!DOCTYPE svg PUBLIC "-//W3C//DTD SVG 1.1//EN" "http://www.w3.org/Graphics/SVG/1.1/DTD/svg11.dtd"><svg width="100%" height="100%" viewBox="0 0 918 504" version="1.1" xmlns="http://www.w3.org/2000/svg" xmlns:xlink="http://www.w3.org/1999/xlink" xml:space="preserve" xmlns:serif="http://www.serif.com/" style="fill-rule:evenodd;clip-rule:evenodd;stroke-linejoin:round;stroke-miterlimit:2;"><g><path d="M339.64,240.729c-0.773,-13.285 -1.466,-25.708 -2.501,-37.231c-0,-0 -54.89,5.031 -54.89,5.031c1.056,11.513 2.21,23.884 4.306,37.038c0.037,0.232 -0.024,0.469 -0.168,0.654c-0.144,0.185 -0.358,0.303 -0.592,0.324l-34.4,3.153c-0.232,0.022 -0.462,-0.053 -0.637,-0.207c-0.174,-0.153 -0.279,-0.371 -0.288,-0.603c-1.048,-26.365 -3.005,-57.665 -6.322,-93.859c-1.806,-19.696 2.24,-36.226 12.1,-49.601c9.885,-13.41 23.986,-21.198 42.357,-22.882c17.913,-1.642 33.198,3.45 45.358,14.841c12.127,11.36 19.111,26.879 20.916,46.575c2.157,23.527 5.471,54.704 10.847,93.448c0.032,0.23 -0.031,0.462 -0.175,0.644c-0.144,0.181 -0.356,0.296 -0.587,0.317l-34.4,3.154c-0.229,0.021 -0.457,-0.052 -0.631,-0.202c-0.174,-0.15 -0.28,-0.364 -0.293,-0.594Zm-60.201,-62.857l54.89,-5.032l-2.246,-24.503c-1.017,-11.091 -4.465,-19.731 -9.914,-25.495c-5.378,-5.687 -12.229,-8.138 -20.547,-7.376c-8.766,0.804 -15.509,4.494 -19.768,11.072c-4.31,6.658 -5.678,15.74 -4.661,26.831l2.246,24.503Zm-193.476,-114.298l-28.109,3.02c2.662,38.692 5.631,71.187 8.088,97.993l48.085,-3.959c16.263,-1.491 29.365,-2.691 39.672,-4.547c0.234,-0.042 0.475,0.016 0.664,0.16c0.189,0.144 0.309,0.361 0.331,0.597l3.278,35.758c0.042,0.467 -0.301,0.879 -0.767,0.922c-7.242,0.664 -21.316,1.498 -42.589,3.448c-21.471,1.968 -36.541,3.777 -45.283,4.606c5.89,64.261 9.932,108.33 12.53,131.721c0.025,0.224 -0.041,0.45 -0.182,0.625c-0.142,0.176 -0.348,0.288 -0.573,0.312l-38.433,3.979c-0.229,0.024 -0.457,-0.047 -0.634,-0.195c-0.176,-0.149 -0.284,-0.362 -0.299,-0.592c-2.372,-35.836 -6.275,-83.397 -11.71,-142.683c-6.389,-69.697 -11.778,-123.513 -16.209,-161.899c-0.027,-0.227 0.04,-0.454 0.184,-0.632c0.144,-0.177 0.353,-0.288 0.58,-0.309l147.559,-13.526c0.466,-0.043 0.879,0.3 0.922,0.767l3.527,38.473c0.021,0.234 -0.055,0.465 -0.211,0.641c-0.155,0.175 -0.376,0.278 -0.61,0.284c-21.383,0.592 -48.151,2.134 -79.811,5.036Zm182.44,230.805c9.201,0.979 18.403,1.958 28.467,2.402l0.005,0.001c9.588,0.484 18.642,0.108 27.204,-0.677c7.193,-0.659 15.244,-1.849 24.071,-4.472c0.243,-0.072 0.507,-0.032 0.717,0.111c0.21,0.142 0.346,0.372 0.369,0.625l2.946,32.137c0.036,0.395 -0.208,0.763 -0.586,0.884c-8.031,2.574 -17.512,4.364 -29.354,5.45c-8.632,0.791 -16.851,1.086 -25.113,0.927c-8.248,-0.158 -18.848,-1.016 -30.85,-2.203c-23.884,-2.362 -42.597,-2.926 -57.04,-1.602c-8.107,0.743 -14.371,1.771 -18.383,2.593c-0.24,0.049 -0.49,-0.008 -0.684,-0.157c-0.195,-0.149 -0.316,-0.375 -0.332,-0.62c-2.123,-33.119 -5.612,-76.153 -10.465,-129.102c-4.355,-47.509 -7.959,-81.856 -10.772,-102.587c-0.031,-0.229 0.032,-0.461 0.176,-0.642c0.144,-0.181 0.356,-0.295 0.586,-0.316l36.664,-3.361c0.227,-0.021 0.454,0.051 0.627,0.199c0.174,0.149 0.281,0.361 0.296,0.589c2.497,37.191 5.321,72.983 8.432,106.923l8.76,90.626c9.634,0.054 24.496,0.519 44.244,2.27c0.005,0.001 0.01,0.001 0.015,0.002Zm156.182,-129.156l2.383,25.994c3.277,35.751 6.637,72.408 10.943,109.434c0.027,0.227 -0.039,0.455 -0.183,0.632c-0.144,0.178 -0.354,0.289 -0.581,0.31l-35.306,3.237c-0.227,0.02 -0.452,-0.051 -0.626,-0.198c-0.174,-0.148 -0.281,-0.359 -0.297,-0.586c-1.622,-22.67 -4.571,-59.822 -9.342,-111.867c-4.77,-52.046 -8.708,-90.02 -11.359,-113.965c-0.025,-0.226 0.042,-0.453 0.186,-0.629c0.144,-0.177 0.353,-0.288 0.579,-0.308l37.116,-3.403c0.374,-0.034 0.726,0.181 0.865,0.529c8.284,20.686 18.627,43.92 30.165,70.239c11.324,25.832 19.707,43.576 24.682,52.841c-0,-0 0.67,-0.062 0.67,-0.062c2.782,-9.99 7.799,-28.961 14.236,-56.408c6.562,-27.984 12.057,-52.675 16.896,-74.568c0.079,-0.36 0.383,-0.628 0.75,-0.661l37.116,-3.403c0.227,-0.02 0.452,0.051 0.626,0.198c0.173,0.147 0.281,0.358 0.297,0.585c1.746,24.028 5.231,62.044 10.002,114.09c4.771,52.045 8.172,89.155 10.699,111.742c0.025,0.226 -0.041,0.453 -0.185,0.63c-0.144,0.176 -0.353,0.288 -0.58,0.308l-34.853,3.195c-0.466,0.043 -0.879,-0.3 -0.922,-0.767c-2.241,-24.447 -4.067,-44.368 -5.025,-59.804l-6.527,-76.129l-0.38,0.034c-6.177,22.036 -14.371,56.365 -25.064,102.586c-0.082,0.356 -0.384,0.62 -0.748,0.653l-21.727,1.992c-0.356,0.032 -0.695,-0.163 -0.846,-0.488c-19.65,-42.348 -34.321,-74.039 -43.66,-95.983Zm199.83,-77.455c-7.507,0.688 -15.206,1.609 -22.753,2.548c0.516,7.447 1.439,17.686 2.634,30.729l17.95,-1.645c9.181,-0.842 14.921,-1.344 17.19,-1.841l4.691,-1.028l2.749,29.993l-4.221,0.387c-3.252,0.298 -9.487,0.572 -18.948,1.439c-7.174,0.658 -12.678,1.314 -16.746,1.774l0.946,10.323l2.107,22.976l21.202,-1.944c11.645,-1.067 19.216,-1.751 22.683,-2.362l4.537,-0.8l2.948,32.164l-80.678,7.396l-0.293,-4.332c-0.842,-12.427 -2.82,-37.253 -6.257,-74.748c-3.356,-36.604 -5.869,-60.784 -7.247,-72.565l-0.505,-4.317l80.684,-7.396l2.904,31.682l-4.414,0.22c-7.063,0.352 -14.127,0.702 -21.163,1.347Zm-204.448,269.192c8.369,11.735 13.893,28.401 15.905,50.357c1.581,17.247 -0.363,32.996 -5.299,47.231l-0.009,0.024c-5.462,14.993 -17.953,23.487 -38.019,25.327c-18.973,1.739 -32.521,-4.047 -40.835,-17.196c-8.157,-12.282 -13.01,-27.72 -14.716,-46.322c-2.58,-28.153 1.632,-48.326 12.105,-60.642c7.231,-8.503 17.439,-13.446 30.721,-14.663c17.844,-1.636 31.092,3.827 40.123,15.85l0.024,0.034Zm-13.472,85.434c3.15,-7.481 3.958,-18.363 2.65,-32.627c-1.36,-14.843 -4.225,-25.94 -8.518,-33.271c-3.797,-6.485 -9.887,-9.47 -18.357,-8.693c-8.237,0.755 -13.695,4.564 -16.258,11.653l-0.016,0.04c-3.122,7.995 -3.632,19.623 -2.274,34.435c1.329,14.507 4.101,25.065 8.561,31.851c3.968,6.038 10.005,8.357 17.835,7.639c8.063,-0.739 13.565,-4.351 16.377,-11.027Zm137.982,-6.153c-2.602,-27.773 -6.602,-64.358 -11.362,-109.222l-0.181,-1.71l31.322,-2.871l0.113,1.737c1.667,25.573 4.193,56.821 7.547,93.409l7.302,75.883l-29.938,2.745l-65.804,-105.004l0.795,8.675c1.6,17.454 3.693,40.279 6.979,68.749c1.693,14.764 2.984,25.158 3.508,30.875l0.155,1.688l-30.598,2.805l-0.139,-1.707c-2.742,-33.609 -4.93,-61.173 -6.931,-82.999c-1.908,-20.818 -4.83,-48.993 -8.428,-84.556l-0.173,-1.703l30.29,-2.776l65.543,105.982Zm74.338,-104.062c0.723,-14.875 6.713,-30.422 18.572,-48.307c4.481,-6.731 8.152,-11.66 19.053,-25.657c12.985,-16.594 17.621,-22.984 23.011,-31.729c8.164,-13.219 14.843,-27.752 19.519,-42.576l0.003,-0.006l1.631,-5.029c0.113,-0.346 0.433,-0.582 0.797,-0.586c0.363,-0.005 0.689,0.223 0.81,0.566l0.536,1.525c3.882,10.768 4.138,22.744 0.787,33.781l-0.001,0.004c-0.09,0.29 -0.176,0.583 -0.256,0.865c1.789,-1.517 4.483,-3.978 6.197,-5.717c14.376,-14.535 21.594,-33.134 19.92,-51.396c-0.975,-10.636 -3.423,-18.001 -12.674,-38.396c-9.686,-21.249 -11.456,-26.842 -12.601,-38.93c-0.703,-7.278 -0.58,-10.795 0.395,-15.75l0.001,-0.004c1.393,-6.898 4.412,-13.367 8.585,-18.456l0.006,-0.007l1.431,-1.708c0.205,-0.244 0.529,-0.353 0.84,-0.281c0.311,0.071 0.555,0.311 0.632,0.62l0.341,1.363c0.602,2.328 2.631,7.166 3.919,9.313l0.002,0.003c2.86,4.812 8.012,10.495 13.857,15.269l0.004,0.003c4.548,3.759 10.138,7.51 21.941,14.781c11.49,7.078 18.178,11.64 22.704,15.53c8.52,7.289 15.522,16.766 19.554,26.484c4.497,10.771 6.027,22.297 4.46,33.504c-0.061,0.477 -0.114,0.932 -0.157,1.337c1.415,-1.15 3.889,-3.215 5.242,-4.653c5.563,-5.89 9.192,-13.667 10.001,-21.39c0.357,-3.348 -0.456,-10.426 -1.492,-12.954l-0.001,-0.003c-0.289,-0.712 -0.505,-1.331 -0.577,-1.624l-0.046,-0.399l0.087,-0.335l0.177,-0.243l0.235,-0.161l0.282,-0.076l0.257,0.014l0.303,0.117c0.126,0.074 0.37,0.288 0.671,0.639c1.072,1.25 3.473,4.637 4.852,6.881c0.002,0.003 0.004,0.006 0.005,0.009c6.002,10.031 8.748,22.288 8.098,36.336c-0.491,11.639 -2.513,21.121 -9.869,46.028c-5.697,19.431 -7.032,26.953 -6.291,35.823c0.4,4.75 1.121,7.674 2.706,11.155c1.905,4.117 5.38,8.068 8.852,9.982c8.084,4.426 15.833,4.115 21.041,-1.047c4.309,-4.271 6.204,-10.217 8.136,-24.616c3.02,-22.38 3.84,-26.935 6.098,-34.311l0.001,-0.004c4.13,-13.232 11.391,-23.491 22.132,-31.264c3.512,-2.531 9.575,-5.659 13.563,-6.992c5.424,-1.801 11.049,-2.618 16.257,-2.368c0.47,0.016 0.805,0.06 0.962,0.122l0.251,0.142l0.196,0.209l0.142,0.345l-0.002,0.345l-0.103,0.279l-0.167,0.231c-0.223,0.242 -0.976,0.736 -2.511,1.682l-0.004,0.003c-18.932,11.518 -30.883,32.298 -31.561,54.833c-0.503,16.794 4.305,33.835 15.857,56.289c9.39,18.257 14.415,31.21 18.11,46.614c1.76,7.304 3.298,21.314 3.145,28.374l0,0.002c-0.605,24.341 -9.17,45.401 -27.448,67.344c-6.929,8.29 -17.44,18.256 -26.694,25.325c-16.943,12.943 -38.506,23.739 -58.719,29.478c-1.951,0.556 -2.959,0.822 -3.315,0.842l-0.419,-0.046l-0.334,-0.192l-0.127,-0.144l-0.099,-0.181l-0.062,-0.372l0.071,-0.311l0.136,-0.231c0.105,-0.138 0.392,-0.386 0.823,-0.71l0.006,-0.005c3.673,-2.71 11.577,-9.1 16.245,-13.117c20.412,-17.516 31.623,-32.188 36.299,-47.582c2.098,-6.925 2.629,-12.36 1.997,-19.649c-1.138,-12.401 -6.355,-24.333 -16.566,-38.02c-6.268,-8.352 -12.068,-14.699 -26.808,-29.153c-15.155,-14.877 -21.908,-22.229 -27.93,-30.273c-12.816,-17.182 -19.623,-35.127 -20.969,-55.37c-0.641,-9.79 -0.058,-15.975 2.09,-22.123c1.35,-3.845 3.897,-8.207 6.496,-11.314c-6.184,3.455 -13.672,9.291 -18.254,14.354c-14.816,16.276 -21.457,36.099 -19.446,58.041c1.432,15.625 6.819,30.825 18.074,51.136c7.816,14.104 10.612,19.736 12.913,25.86l0.001,0.004c2.578,6.972 3.004,8.833 3.657,15.952c0.641,6.995 0.433,10.084 -0.885,14.614c-1.794,6.151 -6.4,11.964 -11.474,14.59c-6.663,3.457 -13.449,2.52 -22.129,-3.337c-14.447,-9.703 -23.13,-24.135 -24.673,-40.973c-0.665,-7.254 -0.009,-14.116 1.965,-20.584l0.001,-0.005c1.139,-3.664 3.012,-7.658 5.752,-12.157c-2.263,2.183 -4.835,4.763 -6.458,6.543c-23.814,26.028 -34.668,54.45 -31.169,81.693c1.111,8.614 3.01,15.3 6.633,23.272c5.905,12.976 15.372,24.269 27.712,33.033l0.006,0.004c1.706,1.231 2.618,1.902 2.952,2.225l0.239,0.28l0.114,0.228l0.049,0.236l-0.01,0.213l-0.056,0.196l-0.104,0.183l-0.265,0.239l-0.313,0.116c-0.158,0.029 -0.552,-0.004 -1.105,-0.135c-0.824,-0.196 -3.39,-1.016 -5.659,-1.804c-20.922,-7.284 -40.024,-20.632 -70.084,-48.947c-24.797,-23.38 -36.323,-41.579 -42.52,-67.202c-1.462,-6.019 -2.908,-21.796 -2.565,-27.98c0.714,-12.833 2.829,-23.486 6.794,-34.159l0.002,-0.005c1.241,-3.279 3.433,-8.371 4.498,-10.514c0.33,-0.662 0.599,-1.082 0.714,-1.196l0.17,-0.131l0.162,-0.073l0.324,-0.042l0.235,0.049l0.233,0.128l0.192,0.207l0.105,0.214c0.092,0.26 0.326,1.914 0.547,3.949c1.243,11.725 5.428,30.35 9.598,43.062Z" style="fill:url(#_Linear1);"/><path d="M326.158,222.425c-0.773,-13.285 -1.466,-25.709 -2.501,-37.232c-0,0 -54.89,5.032 -54.89,5.032c1.056,11.512 2.21,23.884 4.306,37.038c0.037,0.232 -0.024,0.468 -0.168,0.654c-0.144,0.185 -0.358,0.302 -0.592,0.324l-34.4,3.153c-0.232,0.021 -0.462,-0.054 -0.637,-0.207c-0.174,-0.153 -0.279,-0.372 -0.288,-0.604c-1.048,-26.365 -3.005,-57.665 -6.322,-93.859c-1.806,-19.695 2.24,-36.226 12.1,-49.601c9.885,-13.41 23.986,-21.198 42.357,-22.882c17.913,-1.642 33.198,3.451 45.358,14.842c12.126,11.359 19.111,26.879 20.916,46.574c2.157,23.527 5.471,54.705 10.847,93.449c0.032,0.229 -0.031,0.462 -0.175,0.643c-0.144,0.182 -0.356,0.297 -0.587,0.318l-34.4,3.153c-0.229,0.021 -0.457,-0.052 -0.631,-0.202c-0.174,-0.149 -0.28,-0.364 -0.293,-0.593Zm-60.201,-62.857l54.89,-5.032l-2.246,-24.503c-1.017,-11.092 -4.465,-19.731 -9.914,-25.495c-5.378,-5.687 -12.229,-8.139 -20.547,-7.376c-8.766,0.803 -15.509,4.493 -19.768,11.071c-4.31,6.658 -5.678,15.741 -4.661,26.831l2.246,24.504Zm-193.476,-114.299l-28.109,3.021c2.662,38.691 5.631,71.186 8.088,97.992l48.085,-3.959c16.263,-1.491 29.364,-2.69 39.672,-4.546c0.234,-0.042 0.475,0.016 0.664,0.16c0.189,0.144 0.309,0.36 0.331,0.597l3.278,35.758c0.042,0.466 -0.301,0.879 -0.767,0.922c-7.242,0.664 -21.316,1.497 -42.589,3.447c-21.471,1.968 -36.541,3.777 -45.283,4.606c5.89,64.261 9.932,108.331 12.53,131.721c0.025,0.225 -0.041,0.45 -0.182,0.626c-0.142,0.176 -0.348,0.288 -0.573,0.311l-38.433,3.98c-0.229,0.023 -0.458,-0.047 -0.634,-0.196c-0.176,-0.148 -0.284,-0.362 -0.299,-0.592c-2.372,-35.835 -6.275,-83.396 -11.71,-142.683c-6.389,-69.697 -11.778,-123.512 -16.21,-161.898c-0.026,-0.227 0.041,-0.455 0.185,-0.632c0.144,-0.177 0.353,-0.289 0.58,-0.31l147.559,-13.526c0.466,-0.043 0.879,0.301 0.922,0.767l3.526,38.474c0.022,0.233 -0.054,0.465 -0.21,0.64c-0.155,0.175 -0.376,0.279 -0.61,0.285c-21.383,0.592 -48.151,2.133 -79.811,5.035Zm182.44,230.805c9.201,0.979 18.403,1.959 28.467,2.403l0.005,0c9.588,0.485 18.642,0.109 27.204,-0.676c7.193,-0.66 15.244,-1.85 24.071,-4.472c0.243,-0.073 0.507,-0.032 0.717,0.11c0.21,0.143 0.346,0.372 0.369,0.625l2.946,32.137c0.036,0.396 -0.208,0.764 -0.586,0.885c-8.031,2.573 -17.512,4.364 -29.354,5.449c-8.632,0.792 -16.851,1.087 -25.113,0.928c-8.248,-0.159 -18.848,-1.016 -30.85,-2.203c-23.884,-2.362 -42.597,-2.927 -57.04,-1.603c-8.107,0.743 -14.371,1.771 -18.383,2.593c-0.24,0.049 -0.49,-0.008 -0.685,-0.157c-0.194,-0.149 -0.315,-0.375 -0.331,-0.619c-2.123,-33.12 -5.612,-76.154 -10.465,-129.102c-4.355,-47.51 -7.959,-81.856 -10.772,-102.587c-0.031,-0.229 0.032,-0.461 0.176,-0.642c0.144,-0.181 0.356,-0.295 0.586,-0.316l36.664,-3.361c0.227,-0.021 0.454,0.051 0.627,0.199c0.174,0.148 0.281,0.36 0.296,0.588c2.497,37.191 5.321,72.983 8.432,106.924l8.76,90.625c9.634,0.055 24.496,0.52 44.244,2.271c0.005,0 0.01,0.001 0.015,0.001Zm156.182,-129.156l2.383,25.995c3.277,35.751 6.637,72.407 10.943,109.434c0.027,0.226 -0.039,0.454 -0.183,0.632c-0.144,0.177 -0.354,0.289 -0.581,0.31l-35.306,3.236c-0.227,0.021 -0.452,-0.05 -0.626,-0.198c-0.174,-0.147 -0.281,-0.358 -0.297,-0.586c-1.622,-22.669 -4.571,-59.821 -9.342,-111.866c-4.77,-52.046 -8.708,-90.02 -11.359,-113.965c-0.025,-0.227 0.042,-0.453 0.186,-0.63c0.144,-0.176 0.353,-0.287 0.579,-0.308l37.116,-3.402c0.374,-0.034 0.725,0.181 0.865,0.529c8.284,20.685 18.627,43.92 30.165,70.239c11.324,25.832 19.707,43.575 24.682,52.84c-0,0 0.67,-0.061 0.67,-0.061c2.782,-9.991 7.799,-28.962 14.236,-56.408c6.562,-27.984 12.057,-52.675 16.896,-74.569c0.079,-0.36 0.383,-0.627 0.75,-0.661l37.116,-3.402c0.227,-0.021 0.452,0.05 0.626,0.198c0.173,0.147 0.281,0.358 0.297,0.585c1.746,24.027 5.231,62.043 10.002,114.089c4.771,52.045 8.172,89.155 10.699,111.742c0.025,0.227 -0.042,0.454 -0.185,0.63c-0.144,0.177 -0.353,0.288 -0.58,0.309l-34.853,3.195c-0.466,0.042 -0.879,-0.301 -0.922,-0.767c-2.241,-24.447 -4.067,-44.368 -5.025,-59.804l-6.527,-76.13l-0.38,0.035c-6.177,22.036 -14.371,56.365 -25.064,102.585c-0.082,0.357 -0.384,0.62 -0.748,0.654l-21.727,1.991c-0.357,0.033 -0.695,-0.162 -0.846,-0.487c-19.65,-42.348 -34.321,-74.04 -43.66,-95.984Zm199.829,-77.454c-7.506,0.688 -15.205,1.609 -22.752,2.548c0.516,7.446 1.439,17.685 2.634,30.729l17.95,-1.646c9.181,-0.841 14.921,-1.343 17.19,-1.841l4.691,-1.028l2.749,29.994l-4.221,0.387c-3.252,0.298 -9.488,0.571 -18.948,1.439c-7.174,0.657 -12.678,1.314 -16.746,1.773l0.946,10.323l2.107,22.977l21.202,-1.944c11.645,-1.067 19.216,-1.751 22.683,-2.363l4.537,-0.8l2.948,32.165l-80.678,7.395l-0.293,-4.332c-0.842,-12.426 -2.82,-37.253 -6.257,-74.747c-3.356,-36.605 -5.869,-60.784 -7.247,-72.565l-0.505,-4.317l80.684,-7.396l2.904,31.682l-4.414,0.22c-7.064,0.351 -14.127,0.702 -21.164,1.347Zm-204.447,269.191c8.369,11.736 13.893,28.402 15.905,50.357c1.581,17.247 -0.363,32.997 -5.299,47.231l-0.009,0.025c-5.462,14.993 -17.953,23.487 -38.019,25.326c-18.973,1.739 -32.521,-4.046 -40.835,-17.196c-8.157,-12.281 -13.01,-27.719 -14.716,-46.322c-2.58,-28.152 1.632,-48.326 12.105,-60.641c7.231,-8.503 17.439,-13.446 30.721,-14.664c17.844,-1.636 31.092,3.828 40.123,15.85l0.024,0.034Zm-13.472,85.435c3.15,-7.481 3.958,-18.363 2.65,-32.628c-1.36,-14.842 -4.225,-25.939 -8.518,-33.271c-3.797,-6.484 -9.887,-9.469 -18.357,-8.693c-8.237,0.755 -13.695,4.565 -16.258,11.654l-0.016,0.04c-3.122,7.995 -3.632,19.623 -2.274,34.434c1.329,14.508 4.101,25.065 8.561,31.851c3.968,6.039 10.005,8.357 17.835,7.64c8.063,-0.739 13.565,-4.351 16.377,-11.027Zm137.982,-6.153c-2.602,-27.774 -6.602,-64.358 -11.362,-109.222l-0.181,-1.711l31.321,-2.871l0.114,1.738c1.667,25.572 4.193,56.821 7.547,93.409l7.302,75.883l-29.938,2.744l-65.804,-105.003l0.795,8.675c1.6,17.454 3.693,40.279 6.979,68.748c1.693,14.765 2.984,25.159 3.508,30.875l0.155,1.689l-30.598,2.805l-0.139,-1.708c-2.742,-33.608 -4.93,-61.173 -6.931,-82.998c-1.908,-20.819 -4.83,-48.994 -8.428,-84.556l-0.173,-1.703l30.29,-2.777l65.543,105.983Zm74.338,-104.062c0.723,-14.875 6.713,-30.423 18.572,-48.308c4.481,-6.73 8.152,-11.659 19.053,-25.656c12.985,-16.594 17.621,-22.985 23.011,-31.73c8.164,-13.218 14.843,-27.752 19.519,-42.575l0.003,-0.007l1.631,-5.029c0.113,-0.346 0.433,-0.581 0.797,-0.586c0.363,-0.004 0.689,0.224 0.81,0.567l0.536,1.525c3.882,10.767 4.137,22.744 0.787,33.781l-0.001,0.003c-0.09,0.291 -0.176,0.583 -0.256,0.865c1.789,-1.517 4.483,-3.978 6.197,-5.716c14.376,-14.535 21.594,-33.134 19.92,-51.396c-0.975,-10.636 -3.423,-18.001 -12.674,-38.396c-9.686,-21.25 -11.456,-26.843 -12.601,-38.93c-0.703,-7.279 -0.58,-10.795 0.395,-15.75l0.001,-0.004c1.393,-6.899 4.412,-13.368 8.585,-18.456l0.006,-0.007l1.431,-1.708c0.205,-0.245 0.529,-0.353 0.84,-0.282c0.311,0.072 0.555,0.311 0.632,0.621l0.341,1.363c0.602,2.328 2.631,7.165 3.919,9.312l0.002,0.004c2.86,4.812 8.012,10.495 13.857,15.268l0.004,0.003c4.548,3.76 10.138,7.51 21.941,14.781c11.49,7.078 18.178,11.64 22.704,15.53c8.52,7.289 15.522,16.766 19.553,26.484c4.497,10.772 6.028,22.297 4.461,33.504c-0.061,0.477 -0.114,0.933 -0.157,1.337c1.415,-1.15 3.889,-3.215 5.242,-4.652c5.563,-5.89 9.192,-13.668 10.001,-21.39c0.357,-3.349 -0.456,-10.426 -1.492,-12.955l-0.001,-0.002c-0.289,-0.712 -0.505,-1.332 -0.577,-1.625l-0.046,-0.399l0.087,-0.335l0.177,-0.243l0.235,-0.161l0.282,-0.076l0.257,0.014l0.303,0.118c0.126,0.074 0.37,0.287 0.671,0.638c1.072,1.251 3.473,4.638 4.852,6.882c0.002,0.003 0.004,0.005 0.005,0.008c6.002,10.032 8.748,22.289 8.098,36.337c-0.492,11.638 -2.513,21.12 -9.869,46.028c-5.697,19.431 -7.032,26.952 -6.291,35.823c0.4,4.75 1.121,7.673 2.706,11.154c1.905,4.117 5.38,8.069 8.852,9.983c8.084,4.425 15.833,4.114 21.041,-1.047c4.309,-4.271 6.204,-10.217 8.136,-24.616c3.02,-22.381 3.84,-26.935 6.098,-34.311l0.001,-0.004c4.13,-13.233 11.391,-23.491 22.132,-31.265c3.512,-2.53 9.575,-5.658 13.563,-6.992c5.424,-1.801 11.049,-2.617 16.257,-2.368c0.47,0.016 0.805,0.06 0.962,0.122l0.251,0.143l0.195,0.208l0.143,0.345l-0.002,0.346l-0.103,0.279l-0.167,0.231c-0.223,0.242 -0.976,0.736 -2.511,1.682l-0.004,0.003c-18.932,11.517 -30.883,32.297 -31.561,54.832c-0.503,16.794 4.305,33.836 15.857,56.289c9.39,18.258 14.415,31.211 18.11,46.615c1.76,7.304 3.298,21.314 3.145,28.373l0,0.003c-0.605,24.34 -9.17,45.4 -27.448,67.343c-6.929,8.291 -17.44,18.257 -26.694,25.325c-16.943,12.944 -38.506,23.739 -58.719,29.479c-1.951,0.556 -2.959,0.821 -3.315,0.842l-0.419,-0.047l-0.334,-0.192l-0.127,-0.143l-0.099,-0.181l-0.062,-0.373l0.071,-0.31l0.136,-0.232c0.105,-0.137 0.392,-0.385 0.823,-0.71l0.006,-0.005c3.673,-2.709 11.577,-9.1 16.245,-13.117c20.412,-17.515 31.623,-32.187 36.298,-47.581c2.099,-6.926 2.63,-12.361 1.998,-19.65c-1.138,-12.4 -6.355,-24.333 -16.566,-38.02c-6.268,-8.351 -12.068,-14.698 -26.808,-29.153c-15.155,-14.876 -21.908,-22.229 -27.93,-30.272c-12.816,-17.182 -19.623,-35.127 -20.969,-55.371c-0.641,-9.79 -0.058,-15.974 2.09,-22.123c1.35,-3.844 3.897,-8.207 6.496,-11.314c-6.184,3.455 -13.672,9.292 -18.254,14.355c-14.816,16.275 -21.457,36.098 -19.446,58.04c1.432,15.625 6.819,30.825 18.074,51.137c7.816,14.104 10.612,19.735 12.913,25.859l0.001,0.004c2.578,6.973 3.004,8.834 3.657,15.952c0.641,6.996 0.433,10.085 -0.885,14.614c-1.794,6.152 -6.4,11.964 -11.474,14.59c-6.663,3.457 -13.449,2.52 -22.129,-3.336c-14.447,-9.703 -23.13,-24.136 -24.673,-40.973c-0.665,-7.255 -0.009,-14.116 1.965,-20.585l0.001,-0.004c1.139,-3.665 3.012,-7.659 5.751,-12.157c-2.262,2.183 -4.834,4.763 -6.457,6.542c-23.814,26.028 -34.668,54.451 -31.169,81.694c1.111,8.613 3.01,15.3 6.633,23.271c5.905,12.977 15.372,24.27 27.712,33.034l0.006,0.004c1.706,1.231 2.618,1.902 2.952,2.225l0.239,0.279l0.114,0.228l0.049,0.236l-0.01,0.214l-0.056,0.196l-0.104,0.182l-0.265,0.24l-0.313,0.116c-0.158,0.029 -0.552,-0.005 -1.105,-0.135c-0.824,-0.197 -3.39,-1.016 -5.659,-1.804c-20.922,-7.284 -40.024,-20.633 -70.084,-48.947c-24.797,-23.38 -36.323,-41.579 -42.52,-67.202c-1.462,-6.02 -2.908,-21.796 -2.565,-27.981c0.714,-12.833 2.829,-23.485 6.794,-34.158l0.002,-0.005c1.241,-3.279 3.433,-8.371 4.498,-10.514c0.33,-0.663 0.599,-1.082 0.714,-1.197l0.17,-0.13l0.162,-0.074l0.324,-0.042l0.235,0.05l0.233,0.128l0.192,0.206l0.105,0.215c0.092,0.26 0.326,1.914 0.547,3.949c1.243,11.725 5.428,30.349 9.598,43.062Z" style="fill:#bc0410;"/></g><defs><linearGradient id="_Linear1" x1="0" y1="0" x2="1" y2="0" gradientUnits="userSpaceOnUse" gradientTransform="matrix(-88.9193,-582.219,582.219,-88.9193,465.748,600.588)"><stop offset="0" style="stop-color:#ffd500;stop-opacity:1"/><stop offset="1" style="stop-color:#ffbd00;stop-opacity:1"/></linearGradient></defs></svg>